<svg width="1160" height="447" viewBox="0 0 1160 447" fill="none" xmlns="http://www.w3.org/2000/svg">
<g style="mix-blend-mode:soft-light" opacity="0.5">
<path fill-rule="evenodd" clip-rule="evenodd" d="M305.285 1.4148C275.683 -3.78934 237.606 4.50618 187.845 40.6986C138.083 76.8911 76.5537 141.037 0 247.703L0.969422 248.168C77.5006 141.533 138.96 77.4826 188.592 41.3843C238.224 5.28585 275.946 -2.80412 305.048 2.31228C325.335 5.87959 339.652 15.5435 352.619 27.7553C341.244 19.213 328.366 12.7597 311.588 10.3709C281.578 6.13195 243.289 15.3178 193.645 51.7784C144.001 88.2396 82.9234 152.03 7.2995 257.155L8.26834 257.62C83.8693 152.527 144.878 88.83 194.396 52.4611C243.916 16.0918 281.868 7.10456 311.396 11.2754C331.985 14.2069 346.639 23.3535 360.001 35.0768C360.459 35.5513 360.917 36.0283 361.374 36.5077C349.251 27.7802 335.622 21.2788 317.728 19.3429C287.373 16.0609 248.916 26.1301 199.418 62.8518C149.92 99.5744 89.3084 163.001 14.6142 266.578L15.5825 267.044C90.2533 163.5 150.797 100.164 200.174 63.5314C249.552 26.8983 287.691 17.0213 317.581 20.253C337.57 22.4155 352.177 30.3594 365.439 40.827C366.274 41.7251 367.111 42.6293 367.949 43.5384C355.639 35.4782 341.846 29.6403 323.941 28.3001C293.205 25.9964 254.549 36.9558 205.18 73.9349C155.809 110.915 95.6589 173.965 21.9123 275.971L22.8799 276.438C96.6027 174.464 156.687 111.503 205.939 74.6116C255.193 37.7186 293.549 26.944 323.838 29.2143C343.236 30.6662 357.751 37.4717 370.891 46.7334C371.931 47.8636 372.977 48.9993 374.031 50.1388L374.392 50.529C361.923 43.1742 348.002 38.0254 330.171 37.2734C299.029 35.9472 260.177 47.7894 210.943 85.0298C161.707 122.272 102.027 184.958 29.2104 285.437L30.1774 285.905C102.97 185.459 162.585 122.859 211.707 85.7034C260.83 48.547 299.397 36.8821 330.113 38.1902C349.165 38.9937 363.698 44.8848 376.859 53.1802C378.546 54.9824 380.258 56.7886 382.006 58.5907C369.071 51.641 354.711 46.8257 336.417 46.2334C304.883 45.1841 265.824 57.9199 216.71 95.5935C167.591 133.27 108.35 195.937 36.4373 294.874L37.4035 295.343C109.293 196.439 168.471 133.855 217.479 96.2628C266.492 58.6674 305.269 46.1157 336.371 47.1507C355.831 47.7807 370.784 53.2468 384.389 61.0215C385.804 62.4479 387.243 63.8695 388.713 65.2824C375.541 58.9068 360.968 54.777 342.62 55.1205L342.617 55.1205C310.672 55.8486 271.43 69.4848 222.467 107.243C173.502 145.002 114.767 206.922 43.8273 304.311L44.793 304.781C115.708 207.426 174.381 145.587 223.238 107.91C272.096 70.2333 311.087 56.758 342.647 56.0382C362.125 55.6739 377.291 60.4128 391.125 67.5664C393.203 69.5047 395.344 71.4224 397.561 73.3089C383.581 67.0464 368.211 63.1581 348.849 64.1679C316.488 65.8202 277.035 80.3216 228.203 118.332C179.368 156.343 121.107 217.901 51.1244 313.748L52.0895 314.219C122.047 218.405 180.248 156.927 228.978 118.996C277.71 81.0646 316.925 66.7177 348.919 65.0841C369.606 64.0052 385.669 68.5824 400.438 75.7038C403.194 77.9469 406.069 80.1382 409.085 82.2596C393.545 75.4904 376.656 71.3178 355.062 73.0997C322.296 75.8135 282.66 91.2119 233.97 129.471C185.279 167.731 127.493 228.886 58.4221 323.185L59.3864 323.656C128.432 229.392 186.159 168.314 234.749 130.133C283.341 91.9503 322.754 76.6983 355.175 74.013C377.574 72.1648 394.837 76.7949 410.881 84.1059L416.561 87.1788C420.756 89.7539 425.215 92.1885 429.988 94.4436L450.864 105.738C449.764 105.166 448.67 104.595 447.579 104.025L447.528 103.999C445.851 103.123 444.182 102.253 442.518 101.39C434.501 97.2359 426.59 93.2811 418.348 89.9988C401.848 83.4274 384.022 79.5505 361.294 82.1058C328.112 85.8296 288.279 102.104 239.729 140.603C191.177 179.103 133.869 239.858 65.737 332.608L66.7005 333.081C134.807 240.365 192.057 179.684 240.511 141.261C288.967 102.838 328.591 86.7026 361.447 83.0153C383.908 80.49 401.509 84.3137 417.856 90.8239C426.037 94.0824 433.904 98.0137 441.916 102.166C443.574 103.025 445.238 103.893 446.912 104.767C453.323 108.113 459.884 111.537 466.804 114.801C467.749 115.258 468.697 115.711 469.647 116.161C465.432 114.247 461.314 112.302 457.245 110.379C430.099 97.5501 405.088 85.7311 367.477 91.0677C333.906 95.8372 293.885 112.998 245.475 151.74C197.064 190.484 140.231 250.836 73.038 342.045L74.0008 342.518C141.168 251.345 197.945 191.064 246.262 152.396C294.579 113.727 334.404 96.6983 367.669 91.9722C404.847 86.6971 429.465 98.3236 456.588 111.134C462.332 113.846 468.187 116.612 474.298 119.281C478.574 121.194 482.879 123.061 487.212 124.881C485.585 124.229 483.962 123.576 482.342 122.924C477.253 120.875 472.303 118.766 467.417 116.685L467.411 116.683L467.404 116.679C438.974 104.569 412.7 93.3769 373.746 100.031C339.76 105.846 299.532 123.897 251.25 162.884C202.967 201.873 146.6 261.822 80.3362 351.483L81.2982 351.957C147.536 262.332 203.848 202.452 252.04 163.537C300.233 124.621 340.276 106.695 373.976 100.93C412.511 94.3472 438.409 105.373 466.833 117.474L466.834 117.475C471.737 119.562 476.715 121.682 481.845 123.748C492.113 127.88 502.512 132.033 513.317 136.108C509.82 134.811 506.347 133.516 502.887 132.226C498.522 130.599 494.179 128.98 489.837 127.375C485.875 125.911 481.981 124.421 478.123 122.946L478.11 122.941L478.106 122.939C448.233 111.515 420.492 100.905 379.964 109.008C345.526 115.874 305.105 134.823 256.973 174.055C208.84 213.289 152.969 272.829 87.6358 360.918L88.5969 361.394C153.904 273.339 209.721 213.867 257.767 174.705C305.813 135.542 346.061 116.712 380.23 109.899C420.355 101.878 447.739 112.346 477.619 123.768L477.62 123.769L477.634 123.774C481.494 125.25 485.397 126.742 489.374 128.211C493.698 129.81 498.025 131.423 502.375 133.045L502.41 133.058C518.641 139.108 535.19 145.277 553.057 151.247C585.481 162.115 612.743 168.458 642.547 171.032C672.345 173.604 704.659 172.406 747.182 168.214C766.878 166.258 787.457 163.463 809.016 160.365C829.758 157.39 850.84 153.873 871.705 150.393C904.844 144.865 937.438 139.428 967.251 136.399C968.437 137.646 969.592 138.905 970.715 140.176C948.824 143.47 925.516 147.955 901.631 152.632C900.312 152.89 898.991 153.149 897.668 153.408L894.822 153.966C868.627 159.103 841.835 164.358 815.511 168.438C794.137 171.737 773.641 174.542 753.91 176.321C711.232 180.096 678.956 180.065 649.397 176.353C619.839 172.641 592.971 165.245 561.107 154.266C551.451 150.928 542.098 147.588 532.886 144.298L532.884 144.298C520.913 140.023 509.18 135.833 497.331 131.843C494.698 130.955 492.087 130.062 489.491 129.173C457.99 118.394 428.571 108.327 386.182 117.987C316.623 133.831 223.704 197.245 94.8998 370.357L95.8601 370.833C224.654 197.736 317.378 134.612 386.484 118.871C428.486 109.299 457.567 119.248 489.081 130.029C491.669 130.914 494.273 131.805 496.903 132.692C508.751 136.682 520.454 140.861 532.407 145.129L532.411 145.131L532.413 145.131C541.623 148.42 550.982 151.762 560.669 155.111C592.575 166.105 619.54 173.532 649.226 177.26C678.912 180.988 711.292 181.014 754.031 177.234C773.803 175.451 794.333 172.641 815.72 169.34C842.072 165.255 868.89 159.996 895.079 154.86L895.081 154.86C897.356 154.413 899.627 153.968 901.893 153.525C925.973 148.81 949.434 144.297 971.438 141.001C972.596 142.332 973.719 143.676 974.806 145.032C955.917 148.762 936.022 153.302 915.623 157.956C913.988 158.329 912.351 158.703 910.71 159.077L908.361 159.612C880.07 166.056 850.928 172.564 822.218 177.326L822.213 177.327C801.912 180.838 781.404 183.497 760.77 185.295C717.981 188.656 685.671 187.418 656.239 182.566C626.801 177.712 600.217 169.239 568.87 158.103C566.412 157.23 563.969 156.361 561.54 155.496C542.304 148.65 523.884 142.094 504.807 136.281C503.738 135.955 502.672 135.629 501.608 135.303L501.605 135.302L501.598 135.3C468.329 125.123 437 115.54 392.418 126.951C322.006 144.954 229.145 209.762 102.252 379.779L103.211 380.257C230.089 210.26 322.765 145.721 392.754 127.827C436.964 116.512 467.971 125.995 501.254 136.175C502.305 136.496 503.358 136.818 504.414 137.141C523.461 142.945 541.852 149.491 561.091 156.338L561.126 156.35C563.544 157.211 565.975 158.076 568.422 158.945C599.784 170.086 626.457 178.592 656.016 183.465C685.58 188.34 718.005 189.577 760.88 186.208L760.886 186.208C781.559 184.407 802.106 181.742 822.446 178.225C851.199 173.455 880.374 166.94 908.663 160.496L915.92 158.841C936.465 154.154 956.476 149.588 975.455 145.848C976.568 147.261 977.643 148.686 978.677 150.125C964.22 153.656 949.199 157.615 933.825 161.666C927.621 163.301 921.359 164.951 915.054 166.595C886.819 173.953 857.695 181.179 828.87 186.316L828.866 186.317C808.673 190.044 788.208 192.705 767.597 194.283C724.677 197.239 692.337 194.795 663.033 188.8C633.716 182.803 607.42 173.248 576.564 161.956C555.003 154.051 534.31 146.748 512.317 140.734C477.847 131.321 444.724 122.834 398.585 135.915C327.531 156.033 234.586 222.293 109.55 389.216L110.509 389.695C235.524 222.799 328.294 156.789 398.953 136.783C444.714 123.809 477.522 132.2 511.96 141.604C530.991 146.809 549.055 152.983 567.58 159.687C552.01 154.153 536.38 149.202 519.791 145.172C485.475 136.853 451.104 130.523 404.874 144.878C333.055 167.212 240.009 234.809 116.848 398.652L117.806 399.132C240.941 235.323 333.822 167.956 405.274 145.737C451.156 131.489 485.233 137.752 519.471 146.051C537.795 150.503 554.955 156.085 572.183 162.344C557.779 157.324 543.074 152.975 527.265 149.627C493.052 142.362 457.504 138.202 411.095 153.859C338.438 178.35 245.449 247.401 124.164 408.089L125.121 408.571C246.377 247.919 339.209 179.083 411.524 154.707C457.618 139.156 492.891 143.276 526.982 150.515C547.428 154.846 566.033 160.859 584.561 167.847C568.825 162.18 552.556 157.46 534.76 154.168C500.615 147.914 463.887 145.952 417.335 162.881C343.928 189.514 250.802 259.86 131.464 417.526L132.42 418.009C251.726 260.385 344.703 190.238 417.791 163.72C464.061 146.893 500.528 148.839 534.512 155.063C552.268 158.348 568.503 163.062 584.224 168.729C571.069 164.367 557.275 160.842 542.248 158.537C508.175 153.326 470.285 153.59 423.555 171.804C349.433 200.681 256.311 272.394 138.761 426.964L139.716 427.449C257.231 272.924 350.212 201.394 424.039 172.633C470.52 154.515 508.163 154.258 542.041 159.439C561.073 162.359 578.126 167.247 594.43 173.328C580.61 168.644 565.921 165.004 549.651 162.992C515.652 158.781 476.615 161.299 429.724 180.769C354.941 211.917 261.751 284.912 146.077 436.386L147.031 436.872C262.667 285.447 355.723 212.622 430.234 181.587C476.909 162.207 515.707 159.716 549.482 163.9C568.604 166.265 585.536 170.892 601.461 176.834C587.951 172.339 573.424 168.991 557.217 167.447C468.714 159.018 338.026 205.018 153.362 445.822L154.314 446.309C338.954 205.537 469.299 159.998 557.087 168.359C599.976 172.443 630.995 189.238 662.891 206.508L662.899 206.513C666.66 208.549 670.434 210.592 674.24 212.622C710.319 231.859 749.295 249.828 808.823 249.161C876.295 248.396 943.701 216.339 1003.34 186.113L1004.42 185.965C1004.39 185.844 1004.37 185.723 1004.34 185.603C1006.08 184.723 1007.81 183.844 1009.53 182.968C1009.92 182.77 1010.31 182.572 1010.69 182.374C1010.8 182.776 1010.9 183.179 1011 183.583L1012.1 183.404C1011.98 182.887 1011.84 182.372 1011.71 181.858C1013.26 181.068 1014.81 180.28 1016.35 179.496L1016.35 179.495C1016.91 179.209 1017.47 178.923 1018.03 178.638C1018.28 179.422 1018.52 180.211 1018.74 181.005L1019.84 180.799C1019.58 179.903 1019.31 179.013 1019.03 178.13C1021.14 177.056 1023.23 175.988 1025.32 174.928C1025.78 176.106 1026.2 177.297 1026.59 178.502L1027.68 178.266C1027.26 176.971 1026.8 175.692 1026.3 174.428C1028.34 173.396 1030.36 172.373 1032.37 171.358C1033.06 172.869 1033.7 174.406 1034.29 175.97L1035.36 175.703C1034.75 174.061 1034.08 172.449 1033.34 170.866C1035.35 169.85 1037.36 168.843 1039.35 167.847C1040.34 169.669 1041.24 171.537 1042.06 173.453L1043.12 173.153C1042.28 171.173 1041.34 169.244 1040.31 167.364C1042.29 166.377 1044.26 165.4 1046.21 164.436C1047.54 166.519 1048.75 168.676 1049.82 170.909L1050.87 170.573C1049.77 168.29 1048.54 166.087 1047.17 163.961C1049.11 163.007 1051.04 162.066 1052.95 161.139C1054.67 163.435 1056.22 165.842 1057.59 168.364L1058.61 167.992C1057.23 165.435 1055.66 162.997 1053.92 160.671C1055.82 159.749 1057.72 158.842 1059.6 157.95C1061.74 160.396 1063.66 162.998 1065.36 165.764L1066.36 165.354C1064.66 162.57 1062.73 159.95 1060.58 157.487C1062.4 156.625 1064.22 155.778 1066.02 154.947C1068.67 157.513 1071.04 160.296 1073.11 163.309L1074.09 162.858C1072.01 159.844 1069.65 157.059 1067.02 154.488C1068.82 153.658 1070.62 152.844 1072.41 152.049C1075.59 154.663 1078.45 157.566 1080.94 160.782L1081.89 160.291C1079.41 157.093 1076.58 154.2 1073.43 151.592C1075.17 150.822 1076.89 150.069 1078.61 149.335C1082.37 151.922 1085.74 154.883 1088.68 158.254L1089.6 157.721C1086.69 154.388 1083.37 151.451 1079.68 148.876C1081.37 148.159 1083.04 147.461 1084.7 146.783C1089.1 149.272 1093.03 152.236 1096.46 155.729L1097.34 155.154C1093.96 151.721 1090.12 148.792 1085.84 146.317C1087.47 145.66 1089.08 145.022 1090.67 144.404C1095.74 146.715 1100.28 149.617 1104.24 153.187L1105.07 152.571C1101.21 149.085 1096.81 146.227 1091.92 143.926C1092.56 143.682 1093.2 143.442 1093.83 143.205C1094.75 142.862 1095.66 142.527 1096.57 142.199C1102.34 144.245 1107.52 147.011 1112.04 150.603L1112.82 149.944C1108.44 146.465 1103.47 143.749 1097.97 141.7C1099.39 141.195 1100.81 140.708 1102.21 140.24C1108.77 141.944 1114.67 144.526 1119.83 148.131L1120.56 147.434C1115.61 143.974 1110.01 141.442 1103.83 139.709C1105.16 139.278 1106.48 138.864 1107.78 138.469C1115.15 139.732 1121.79 142.045 1127.61 145.604L1128.29 144.869C1122.78 141.5 1116.57 139.23 1109.75 137.889C1110.85 137.568 1111.95 137.261 1113.04 136.968C1121.34 137.675 1128.83 139.64 1135.4 143.131L1136.01 142.361C1129.92 139.127 1123.09 137.18 1115.61 136.303C1116.59 136.057 1117.56 135.823 1118.53 135.602C1127.65 135.683 1135.9 137.217 1143.19 140.543L1143.74 139.741C1137.27 136.79 1130.09 135.225 1122.28 134.801C1122.8 134.697 1123.32 134.597 1123.84 134.5C1133.82 133.858 1142.89 134.879 1150.95 137.995L1151.43 137.165C1145.17 134.743 1138.33 133.562 1130.98 133.415C1141.13 132.229 1150.43 132.757 1158.78 135.458L1159.19 134.604C1148.68 131.204 1136.76 131.176 1123.67 133.591C1120.3 133.81 1116.84 134.215 1113.29 134.788C1109.9 134.949 1106.4 135.287 1102.81 135.786C1099.92 135.865 1096.96 136.062 1093.93 136.37C1090.4 136.332 1086.75 136.464 1083 136.751C1079.77 136.649 1076.44 136.677 1073.02 136.823C1070.14 136.643 1067.19 136.559 1064.15 136.564C1063.43 136.565 1062.71 136.571 1061.98 136.582C1060.51 136.453 1059.01 136.347 1057.49 136.263C1055.66 136.162 1053.79 136.093 1051.9 136.054C1051.53 136.01 1051.17 135.966 1050.79 135.925C1047.75 135.58 1044.61 135.324 1041.4 135.149C1038.01 134.632 1034.51 134.217 1030.9 133.896C1027.45 133.259 1023.89 132.719 1020.23 132.268C1017.14 131.598 1013.96 130.999 1010.71 130.466C1006.74 129.45 1002.63 128.544 998.397 127.74C995.271 126.867 992.064 126.057 988.782 125.304C985.287 124.194 981.692 123.155 978.007 122.186C974.641 121.011 971.187 119.898 967.653 118.846C964.236 117.537 960.732 116.29 957.149 115.101C953.682 113.663 950.129 112.285 946.497 110.965C942.921 109.37 939.256 107.835 935.513 106.361C932.563 104.961 929.558 103.602 926.5 102.282C922.358 100.16 918.107 98.115 913.76 96.1483C908.607 93.4156 903.299 90.7982 897.862 88.2997C846.279 64.5967 782.912 51.5298 728.526 52.0664C669.152 52.6572 627.286 69.3988 589.625 84.4592L589.619 84.4617C587.511 85.3047 585.416 86.1424 583.332 86.9717C544.008 102.621 508.59 115.258 461.205 104.193C453.427 102.379 446.307 100.155 439.743 97.6007C434.001 94.0683 428.576 90.4139 423.288 86.7956C419.869 84.3726 416.548 81.9382 413.275 79.53L411.96 78.5622L411.945 78.5509L411.846 78.4784C411.338 78.1041 410.831 77.7305 410.324 77.3579C408.873 76.2039 407.438 75.0501 406.013 73.9001C405.07 73.139 404.131 72.3795 403.196 71.6226L403.179 71.609C400.143 69.1518 397.142 66.7234 394.136 64.3623C390.141 60.8674 386.202 57.4356 382.216 54.1629C378.733 50.9108 375.266 47.738 371.737 44.7145C368.956 41.9629 366.171 39.2785 363.338 36.6997C362.524 35.9585 361.705 35.2257 360.881 34.5023C345.784 18.8718 329.847 5.73392 305.285 1.4148ZM1114.34 135.663C1114.04 135.675 1113.74 135.687 1113.44 135.701C1112.93 135.783 1112.42 135.869 1111.91 135.958C1112.25 135.982 1112.58 136.008 1112.92 136.035C1113.39 135.909 1113.87 135.785 1114.34 135.663ZM1110.22 136.778C1109.5 136.741 1108.76 136.713 1108.02 136.694C1107.23 136.856 1106.43 137.024 1105.63 137.201C1106.33 137.297 1107.01 137.403 1107.7 137.517C1108.54 137.263 1109.39 137.016 1110.22 136.778ZM1105.67 138.138C1104.79 138.012 1103.9 137.902 1103 137.805C1101.86 138.075 1100.71 138.359 1099.56 138.657C1100.44 138.845 1101.31 139.048 1102.16 139.265C1103.34 138.876 1104.51 138.5 1105.67 138.138ZM1100.51 139.821C1099.53 139.593 1098.54 139.384 1097.53 139.193C1096.26 139.537 1094.98 139.897 1093.69 140.272C1094.66 140.562 1095.62 140.871 1096.57 141.198C1097.89 140.723 1099.2 140.264 1100.51 139.821ZM1095.15 141.712C1094.12 141.375 1093.08 141.06 1092.02 140.765C1090.58 141.195 1089.13 141.644 1087.67 142.11C1088.7 142.51 1089.72 142.931 1090.71 143.374C1091.6 143.033 1092.49 142.698 1093.36 142.37C1093.96 142.148 1094.55 141.928 1095.15 141.712ZM1089.45 143.863C1088.4 143.41 1087.32 142.981 1086.23 142.577C1084.72 143.068 1083.2 143.578 1081.66 144.106C1082.73 144.62 1083.77 145.157 1084.79 145.72C1086.35 145.083 1087.91 144.464 1089.45 143.863ZM1083.63 146.193C1082.57 145.62 1081.48 145.074 1080.37 144.554C1078.79 145.106 1077.2 145.676 1075.6 146.263C1076.68 146.895 1077.73 147.554 1078.75 148.238C1080.39 147.539 1082.02 146.857 1083.63 146.193ZM1077.67 148.702C1076.61 148.007 1075.52 147.34 1074.41 146.7C1072.77 147.306 1071.12 147.93 1069.46 148.57C1070.54 149.324 1071.59 150.106 1072.6 150.916C1074.3 150.161 1075.99 149.423 1077.67 148.702ZM1071.57 151.376C1070.53 150.555 1069.46 149.764 1068.35 149.001C1066.64 149.667 1064.91 150.349 1063.18 151.047C1064.25 151.928 1065.28 152.838 1066.27 153.776C1068.05 152.96 1069.82 152.159 1071.57 151.376ZM1065.27 154.237C1064.26 153.287 1063.2 152.367 1062.11 151.477C1060.39 152.176 1058.65 152.891 1056.9 153.621C1057.94 154.631 1058.95 155.67 1059.91 156.74C1061.71 155.891 1063.5 155.056 1065.27 154.237ZM1058.93 157.204C1057.95 156.122 1056.93 155.071 1055.87 154.051C1054.05 154.81 1052.23 155.584 1050.39 156.373C1051.41 157.515 1052.39 158.688 1053.32 159.891C1055.21 158.981 1057.08 158.085 1058.93 157.204ZM1052.35 160.359C1051.41 159.143 1050.42 157.959 1049.38 156.805C1047.54 157.598 1045.69 158.405 1043.83 159.224C1044.82 160.502 1045.76 161.81 1046.64 163.149C1048.56 162.207 1050.46 161.276 1052.35 160.359ZM1045.68 163.624C1044.79 162.272 1043.84 160.951 1042.83 159.661C1040.95 160.489 1039.06 161.33 1037.16 162.183C1038.11 163.598 1039.01 165.045 1039.84 166.522C1041.8 165.545 1043.75 164.579 1045.68 163.624ZM1038.88 167.005C1038.04 165.513 1037.14 164.053 1036.18 162.625C1034.26 163.485 1032.33 164.355 1030.4 165.236C1031.3 166.792 1032.15 168.378 1032.93 169.995C1034.92 168.989 1036.91 167.991 1038.88 167.005ZM1031.95 170.485C1031.17 168.854 1030.33 167.254 1029.41 165.684L1028.93 165.902C1027.16 166.711 1025.38 167.527 1023.59 168.351C1024.44 170.047 1025.23 171.773 1025.94 173.529C1027.96 172.507 1029.96 171.492 1031.95 170.485ZM1024.96 174.028C1024.25 172.257 1023.46 170.516 1022.6 168.805C1020.6 169.727 1018.58 170.657 1016.56 171.595C1017.36 173.436 1018.08 175.306 1018.72 177.204C1020.81 176.139 1022.89 175.08 1024.96 174.028ZM1017.73 177.711C1017.08 175.796 1016.36 173.911 1015.57 172.055C1013.55 172.988 1011.53 173.929 1009.49 174.874C1010.23 176.858 1010.88 178.869 1011.45 180.908C1012.88 180.181 1014.3 179.455 1015.72 178.732L1015.77 178.707C1016.42 178.374 1017.08 178.042 1017.73 177.711ZM1010.44 181.422C1009.88 179.367 1009.23 177.34 1008.49 175.34C1007.32 175.887 1006.14 176.435 1004.96 176.985L1004.78 177.066L1004.76 177.074L1002.4 178.175C1003.06 180.301 1003.64 182.452 1004.13 184.629C1005.74 183.814 1007.34 183.001 1008.93 182.189C1009.44 181.933 1009.94 181.678 1010.44 181.422ZM1003.1 185.15C1002.62 182.956 1002.05 180.788 1001.38 178.646C999.289 179.621 997.183 180.599 995.068 181.581C995.662 183.849 996.16 186.142 996.56 188.458C998.751 187.354 1000.93 186.251 1003.1 185.15ZM996.385 188.546L995.458 188.652C995.077 186.432 994.604 184.233 994.043 182.056C952.898 201.131 908.14 221.121 862.609 231.947C842.885 236.783 822.486 239.542 801.906 240.158L801.9 240.158C740.036 241.446 700.277 224.006 662.466 205.176C662.814 205.365 663.161 205.553 663.509 205.741C667.275 207.781 671.05 209.825 674.854 211.853C710.872 231.058 749.617 248.907 808.808 248.243C873.553 247.509 938.322 217.795 996.385 188.546ZM474.298 119.281L474.296 119.28L474.566 118.877L474.301 119.282L474.298 119.281ZM653.454 199.571C651.45 198.562 649.445 197.553 647.438 196.547C688.208 215.536 729.103 233.191 795.122 231.199L795.128 231.198C815.722 230.398 836.134 227.658 855.959 223.033C902.971 212.469 949.454 192.917 991.885 174.987C992.599 177.01 993.237 179.053 993.794 181.115C952.572 200.229 907.82 220.241 862.293 231.066L862.288 231.067C842.656 235.881 822.352 238.628 801.868 239.241C735.035 240.631 694.271 220.114 653.454 199.571ZM1001.09 177.725C999.01 178.694 996.918 179.666 994.817 180.641C994.256 178.593 993.617 176.565 992.903 174.557L993.267 174.403C994.386 173.93 995.502 173.459 996.614 172.989C997.409 172.653 998.202 172.318 998.994 171.984C999.766 173.876 1000.47 175.79 1001.09 177.725ZM1004.18 176.29L1002.1 177.255C1001.47 175.335 1000.77 173.435 1000.01 171.557C1001.97 170.727 1003.93 169.901 1005.88 169.082C1006.71 170.845 1007.46 172.631 1008.15 174.44C1006.83 175.055 1005.51 175.671 1004.18 176.29ZM1012.25 172.539C1011.22 173.016 1010.19 173.495 1009.15 173.975C1008.46 172.181 1007.71 170.409 1006.89 168.659C1008.85 167.835 1010.8 167.016 1012.75 166.206C1013.62 167.839 1014.43 169.496 1015.18 171.177C1014.21 171.63 1013.23 172.084 1012.25 172.539ZM1022.16 167.952C1020.18 168.866 1018.18 169.788 1016.17 170.718C1015.43 169.051 1014.62 167.407 1013.75 165.787C1015.7 164.974 1017.65 164.169 1019.58 163.372C1020.5 164.874 1021.36 166.4 1022.16 167.952ZM1028.39 165.101C1026.65 165.893 1024.9 166.692 1023.15 167.498C1022.35 165.961 1021.49 164.447 1020.58 162.958C1021.21 162.7 1021.84 162.443 1022.46 162.187C1023.71 161.673 1024.96 161.164 1026.2 160.66C1027.16 162.033 1028.07 163.432 1028.92 164.856L1028.39 165.101ZM1035.63 161.823C1033.73 162.674 1031.83 163.537 1029.91 164.408C1029.06 162.997 1028.16 161.611 1027.21 160.25C1029.08 159.493 1030.94 158.745 1032.79 158.01C1033.78 159.255 1034.73 160.526 1035.63 161.823ZM1042.22 158.887C1040.36 159.706 1038.49 160.538 1036.61 161.381C1035.72 160.096 1034.79 158.838 1033.81 157.604C1035.64 156.875 1037.47 156.158 1039.28 155.453C1040.3 156.572 1041.29 157.716 1042.22 158.887ZM1048.7 156.061C1046.88 156.844 1045.06 157.641 1043.22 158.449C1042.29 157.291 1041.32 156.158 1040.32 155.051C1042.11 154.355 1043.9 153.671 1045.67 153.002C1046.72 153.996 1047.73 155.015 1048.7 156.061ZM1055.11 153.336C1053.32 154.086 1051.52 154.849 1049.71 155.627C1048.76 154.593 1047.76 153.585 1046.73 152.601C1048.51 151.935 1050.27 151.283 1052.02 150.646C1053.08 151.518 1054.11 152.414 1055.11 153.336ZM1061.26 150.797C1059.57 151.485 1057.86 152.188 1056.14 152.904C1055.17 151.994 1054.16 151.108 1053.12 150.246C1054.8 149.639 1056.46 149.045 1058.12 148.467C1059.2 149.219 1060.25 149.996 1061.26 150.797ZM1067.39 148.356C1065.72 149.01 1064.03 149.679 1062.33 150.364C1061.34 149.574 1060.32 148.808 1059.27 148.065C1060.94 147.489 1062.59 146.928 1064.23 146.383C1065.31 147.017 1066.37 147.675 1067.39 148.356ZM1073.33 146.094C1071.74 146.686 1070.13 147.296 1068.52 147.92C1067.52 147.25 1066.5 146.603 1065.46 145.977C1067.04 145.457 1068.61 144.953 1070.17 144.466C1071.25 144.986 1072.3 145.529 1073.33 146.094ZM1079.13 143.99C1077.61 144.527 1076.07 145.08 1074.53 145.649C1073.54 145.096 1072.54 144.563 1071.51 144.051C1073.03 143.584 1074.53 143.133 1076.02 142.699C1077.08 143.109 1078.12 143.539 1079.13 143.99ZM1084.78 142.061C1083.35 142.535 1081.9 143.026 1080.44 143.532C1079.49 143.093 1078.51 142.672 1077.52 142.27C1078.95 141.863 1080.37 141.472 1081.77 141.098C1082.79 141.401 1083.8 141.722 1084.78 142.061ZM1090.29 140.309C1088.95 140.717 1087.61 141.141 1086.25 141.58C1085.35 141.253 1084.43 140.942 1083.5 140.647C1084.84 140.301 1086.17 139.972 1087.48 139.658C1088.43 139.86 1089.37 140.077 1090.29 140.309ZM1095.38 138.816C1094.26 139.13 1093.14 139.455 1092 139.793C1091.2 139.575 1090.39 139.369 1089.57 139.175C1090.09 139.056 1090.62 138.94 1091.14 138.827C1091.73 138.698 1092.31 138.574 1092.9 138.452C1093.74 138.562 1094.56 138.683 1095.38 138.816ZM1100.14 137.546C1099.26 137.77 1098.37 138.001 1097.48 138.241C1096.86 138.126 1096.23 138.017 1095.6 137.915C1096.5 137.743 1097.39 137.58 1098.28 137.427C1098.91 137.46 1099.53 137.5 1100.14 137.546ZM1103.71 136.683C1103.44 136.744 1103.17 136.807 1102.91 136.87C1102.68 136.846 1102.45 136.823 1102.22 136.8C1102.46 136.766 1102.69 136.733 1102.92 136.701C1103.19 136.694 1103.45 136.688 1103.71 136.683ZM1093.5 137.339L1093.22 137.369C1092.95 137.399 1092.67 137.429 1092.4 137.46C1092.55 137.478 1092.7 137.497 1092.85 137.516C1093.03 137.478 1093.21 137.441 1093.4 137.404C1093.58 137.366 1093.76 137.329 1093.95 137.293C1093.8 137.308 1093.65 137.323 1093.5 137.339ZM1090.02 138.121C1089.48 138.067 1088.93 138.018 1088.38 137.972C1087.5 138.095 1086.63 138.226 1085.74 138.365C1086.32 138.474 1086.9 138.587 1087.47 138.707C1088.32 138.505 1089.17 138.309 1090.02 138.121ZM1085.32 139.227C1084.54 139.083 1083.76 138.949 1082.97 138.823C1081.8 139.027 1080.62 139.244 1079.42 139.474C1080.22 139.682 1081.01 139.899 1081.79 140.128C1082.98 139.815 1084.15 139.515 1085.32 139.227ZM1080.03 140.601C1079.12 140.354 1078.21 140.12 1077.28 139.9C1075.99 140.163 1074.68 140.44 1073.37 140.732C1074.29 141.043 1075.19 141.368 1076.08 141.708C1077.41 141.325 1078.72 140.956 1080.03 140.601ZM1074.57 142.151C1073.59 141.796 1072.6 141.457 1071.59 141.134C1070.2 141.455 1068.79 141.792 1067.37 142.143C1068.35 142.563 1069.32 142.998 1070.28 143.451C1071.72 143.003 1073.15 142.57 1074.57 142.151ZM1068.92 143.875C1067.91 143.408 1066.87 142.96 1065.82 142.53C1064.34 142.904 1062.86 143.294 1061.36 143.698C1062.38 144.228 1063.39 144.776 1064.38 145.343C1065.9 144.839 1067.42 144.35 1068.92 143.875ZM1063.14 145.756C1062.1 145.175 1061.05 144.615 1059.97 144.075C1058.4 144.504 1056.83 144.948 1055.24 145.408C1056.29 146.052 1057.31 146.716 1058.32 147.4C1059.93 146.837 1061.54 146.289 1063.14 145.756ZM1057.15 147.806C1056.11 147.109 1055.05 146.434 1053.96 145.779C1052.38 146.242 1050.79 146.719 1049.18 147.209C1050.24 147.969 1051.27 148.749 1052.26 149.551C1053.9 148.956 1055.53 148.374 1057.15 147.806ZM1051.16 149.954C1050.13 149.139 1049.07 148.347 1047.98 147.577C1046.3 148.097 1044.6 148.632 1042.89 149.181C1043.95 150.058 1044.97 150.958 1045.97 151.879C1047.71 151.224 1049.44 150.582 1051.16 149.954ZM1044.9 152.282C1043.88 151.348 1042.83 150.436 1041.75 149.548C1040.04 150.1 1038.32 150.665 1036.59 151.243C1037.64 152.24 1038.65 153.26 1039.62 154.302C1041.39 153.616 1043.15 152.943 1044.9 152.282ZM1038.58 154.706C1037.59 153.651 1036.56 152.619 1035.49 151.61C1033.74 152.197 1031.98 152.796 1030.21 153.407C1031.24 154.526 1032.23 155.667 1033.18 156.831C1034.99 156.111 1036.8 155.403 1038.58 154.706ZM1032.16 157.237C1031.2 156.061 1030.19 154.907 1029.14 153.776C1027.35 154.394 1025.56 155.023 1023.75 155.663C1024.76 156.904 1025.73 158.168 1026.65 159.453C1028.5 158.705 1030.33 157.965 1032.16 157.237ZM1025.64 159.863C1024.71 158.564 1023.73 157.288 1022.7 156.035C1020.9 156.674 1019.09 157.324 1017.27 157.983C1018.25 159.347 1019.19 160.732 1020.07 162.14C1020.4 162.006 1020.72 161.873 1021.04 161.741C1021.35 161.616 1021.65 161.491 1021.96 161.366C1022.32 161.218 1022.68 161.07 1023.04 160.923C1023.91 160.568 1024.77 160.214 1025.64 159.863ZM1019.07 162.553C1018.17 161.133 1017.23 159.734 1016.23 158.358L1015.93 158.469C1014.16 159.11 1012.39 159.76 1010.6 160.417C1011.55 161.905 1012.45 163.415 1013.3 164.947C1015.23 164.141 1017.15 163.343 1019.07 162.553ZM1012.29 165.365C1011.44 163.82 1010.54 162.297 1009.58 160.795C1007.7 161.489 1005.81 162.191 1003.91 162.9C1004.82 164.512 1005.68 166.145 1006.48 167.799C1008.43 166.981 1010.36 166.169 1012.29 165.365ZM1005.47 168.221C1004.67 166.554 1003.8 164.908 1002.88 163.282C1001 163.986 999.106 164.697 997.204 165.414C998.076 167.149 998.889 168.904 999.639 170.678C1001.59 169.854 1003.54 169.034 1005.47 168.221ZM998.63 171.104C997.877 169.316 997.06 167.548 996.181 165.799C994.227 166.536 992.263 167.279 990.29 168.027C991.119 169.886 991.882 171.764 992.579 173.659L992.581 173.659C994.606 172.803 996.623 171.951 998.63 171.104ZM991.563 174.089C990.865 172.18 990.099 170.288 989.266 168.415C986.304 169.539 983.321 170.674 980.318 171.816L980.311 171.818C939.123 187.484 894.276 204.541 849.256 214.117C829.323 218.517 808.892 221.238 788.281 222.237L788.275 222.237C719.077 225.012 677.423 208.032 633.909 189.175C636.757 190.496 639.591 191.82 642.419 193.141C685.089 213.079 726.343 232.354 795.077 230.281C815.585 229.485 835.911 226.756 855.653 222.149L855.658 222.148C902.635 211.593 949.073 192.043 991.563 174.089ZM629.93 186.406C623.608 183.662 617.22 180.889 610.677 178.141C612.126 178.727 613.57 179.311 615.008 179.893L615.011 179.894C663.676 199.594 706.398 216.887 781.425 213.19L781.431 213.19C802.059 212 822.515 209.297 842.552 205.115C884.748 196.633 927.054 182.253 966.289 168.917C973.026 166.627 979.673 164.368 986.213 162.175C987.161 163.949 988.05 165.741 988.876 167.55C985.873 168.69 982.848 169.84 979.804 170.998L979.774 171.009C938.599 186.669 893.883 203.676 848.971 213.228L848.966 213.23C829.108 217.614 808.752 220.325 788.217 221.32C716.938 224.179 675.111 206.02 629.934 186.408L629.93 186.406ZM995.749 164.95C993.809 165.682 991.859 166.42 989.9 167.162C989.077 165.366 988.195 163.587 987.254 161.826C989.164 161.186 991.065 160.552 992.956 159.925C993.944 161.581 994.876 163.257 995.749 164.95ZM1002.41 162.451C1000.54 163.149 998.658 163.854 996.771 164.565C995.904 162.885 994.98 161.223 994.001 159.579C995.84 158.971 997.669 158.369 999.49 157.774C1000.52 159.313 1001.49 160.872 1002.41 162.451ZM1009.05 159.982C1007.19 160.67 1005.31 161.366 1003.43 162.069C1002.52 160.503 1001.56 158.957 1000.54 157.431C1002.38 156.832 1004.21 156.24 1006.03 155.658C1007.08 157.078 1008.09 158.52 1009.05 159.982ZM1015.47 157.63C1013.68 158.28 1011.89 158.938 1010.08 159.603C1009.13 158.154 1008.13 156.726 1007.09 155.317C1007.83 155.079 1008.58 154.843 1009.32 154.608C1010.39 154.268 1011.46 153.931 1012.52 153.598C1013.61 154.899 1014.66 156.221 1015.65 157.565L1015.47 157.63ZM1022.06 155.261C1020.28 155.894 1018.49 156.537 1016.69 157.189C1015.71 155.858 1014.68 154.549 1013.61 153.261C1015.36 152.713 1017.11 152.175 1018.85 151.647C1019.96 152.83 1021.03 154.035 1022.06 155.261ZM1028.43 153.024C1026.67 153.635 1024.9 154.257 1023.11 154.888C1022.1 153.675 1021.04 152.483 1019.95 151.312C1021.69 150.785 1023.42 150.269 1025.14 149.764C1026.27 150.829 1027.37 151.915 1028.43 153.024ZM1034.7 150.881C1032.98 151.46 1031.25 152.052 1029.5 152.654C1028.46 151.558 1027.39 150.484 1026.27 149.431C1027.98 148.934 1029.67 148.448 1031.35 147.974C1032.51 148.921 1033.62 149.89 1034.7 150.881ZM1040.88 148.843C1039.2 149.387 1037.51 149.943 1035.81 150.511C1034.75 149.533 1033.66 148.577 1032.53 147.642C1034.19 147.178 1035.84 146.726 1037.48 146.287C1038.64 147.117 1039.78 147.969 1040.88 148.843ZM1047.01 146.897C1045.36 147.409 1043.69 147.934 1042.02 148.472C1040.95 147.612 1039.85 146.773 1038.72 145.955C1040.36 145.52 1041.99 145.098 1043.6 144.69C1044.77 145.404 1045.9 146.14 1047.01 146.897ZM1052.85 145.128C1051.32 145.581 1049.77 146.047 1048.21 146.525C1047.15 145.782 1046.05 145.06 1044.93 144.357C1046.44 143.98 1047.95 143.615 1049.44 143.263C1050.6 143.864 1051.74 144.486 1052.85 145.128ZM1058.7 143.455C1057.19 143.873 1055.67 144.305 1054.14 144.751C1053.08 144.123 1051.99 143.515 1050.88 142.927C1052.38 142.581 1053.86 142.249 1055.33 141.932C1056.48 142.42 1057.6 142.928 1058.7 143.455ZM1064.35 141.945C1062.94 142.306 1061.53 142.681 1060.11 143.069C1059.07 142.558 1058.02 142.065 1056.94 141.59C1058.33 141.298 1059.7 141.02 1061.07 140.755C1062.18 141.134 1063.27 141.53 1064.35 141.945ZM1069.83 140.59C1068.54 140.896 1067.23 141.214 1065.92 141.545C1064.93 141.149 1063.93 140.769 1062.92 140.404C1064.19 140.166 1065.46 139.94 1066.72 139.727C1067.77 139.999 1068.81 140.287 1069.83 140.59ZM1075.08 139.409C1073.95 139.651 1072.8 139.904 1071.65 140.167C1070.76 139.886 1069.86 139.618 1068.95 139.361C1070.06 139.184 1071.17 139.017 1072.27 138.861C1073.22 139.031 1074.16 139.214 1075.08 139.409ZM1080.07 138.408C1079.15 138.581 1078.23 138.762 1077.3 138.95C1076.59 138.784 1075.87 138.626 1075.15 138.475C1075.99 138.37 1076.82 138.271 1077.65 138.178L1077.88 138.153C1078.62 138.231 1079.35 138.316 1080.07 138.408ZM1084.03 137.707C1083.67 137.766 1083.32 137.826 1082.96 137.887C1082.66 137.84 1082.35 137.793 1082.05 137.749C1082.38 137.721 1082.7 137.695 1083.03 137.67L1083.3 137.679C1083.45 137.684 1083.59 137.69 1083.74 137.695C1083.83 137.699 1083.93 137.703 1084.03 137.707ZM1073.43 137.77C1073.29 137.761 1073.15 137.752 1073.01 137.743C1072.55 137.763 1072.09 137.785 1071.63 137.809C1071.86 137.847 1072.08 137.886 1072.3 137.926C1072.68 137.872 1073.05 137.821 1073.43 137.77ZM1069.3 138.37C1068.65 138.272 1067.99 138.179 1067.33 138.091C1066.5 138.156 1065.67 138.226 1064.83 138.303C1065.49 138.457 1066.13 138.615 1066.78 138.78C1067.62 138.637 1068.47 138.501 1069.3 138.37ZM1064.49 139.177C1063.62 138.975 1062.75 138.782 1061.86 138.6C1060.79 138.715 1059.7 138.84 1058.61 138.975C1059.47 139.238 1060.32 139.511 1061.16 139.794C1062.28 139.579 1063.38 139.373 1064.49 139.177ZM1059.27 140.165C1058.3 139.854 1057.31 139.556 1056.3 139.271C1055.07 139.435 1053.83 139.611 1052.58 139.797C1053.56 140.17 1054.52 140.556 1055.47 140.954C1056.74 140.68 1058.01 140.417 1059.27 140.165ZM1053.83 141.309C1052.79 140.888 1051.73 140.482 1050.66 140.091C1049.29 140.305 1047.92 140.531 1046.53 140.77C1047.58 141.254 1048.61 141.753 1049.62 142.267C1051.03 141.936 1052.44 141.616 1053.83 141.309ZM1048.15 142.613C1047.08 142.079 1045.98 141.562 1044.86 141.062C1043.46 141.31 1042.06 141.57 1040.64 141.841C1041.72 142.436 1042.78 143.047 1043.82 143.675C1045.27 143.309 1046.72 142.955 1048.15 142.613ZM1042.48 144.014C1041.39 143.368 1040.28 142.741 1039.14 142.131C1037.6 142.433 1036.05 142.748 1034.49 143.075C1035.6 143.783 1036.68 144.509 1037.74 145.252C1039.33 144.827 1040.91 144.414 1042.48 144.014ZM1036.48 145.588C1035.39 144.829 1034.26 144.088 1033.11 143.366C1031.54 143.699 1029.97 144.044 1028.38 144.4C1029.5 145.221 1030.59 146.061 1031.65 146.919C1033.27 146.464 1034.88 146.02 1036.48 145.588ZM1030.46 147.254C1029.37 146.381 1028.25 145.527 1027.09 144.692C1025.48 145.059 1023.86 145.438 1022.22 145.828C1023.34 146.763 1024.42 147.717 1025.48 148.689C1027.15 148.199 1028.81 147.721 1030.46 147.254ZM1024.34 149.024C1023.26 148.037 1022.14 147.07 1020.99 146.121C1019.34 146.519 1017.68 146.928 1016 147.348C1017.11 148.397 1018.19 149.465 1019.23 150.551C1020.94 150.032 1022.64 149.523 1024.34 149.024ZM1018.12 150.888C1017.06 149.787 1015.96 148.706 1014.82 147.643C1013.15 148.065 1011.46 148.498 1009.77 148.939C1010.87 150.102 1011.93 151.283 1012.95 152.483C1014.68 151.942 1016.41 151.41 1018.12 150.888ZM1011.87 152.821C1010.83 151.608 1009.75 150.414 1008.63 149.238C1006.89 149.694 1005.14 150.16 1003.38 150.635C1004.46 151.913 1005.5 153.209 1006.49 154.522C1007.3 154.264 1008.11 154.007 1008.91 153.752C1009.9 153.439 1010.89 153.129 1011.87 152.821ZM1005.43 154.863C1004.42 153.536 1003.36 152.227 1002.26 150.936C1000.5 151.413 998.735 151.898 996.955 152.392C998.013 153.784 999.027 155.193 999.997 156.62C1001.82 156.027 1003.63 155.441 1005.43 154.863ZM998.943 156.963C997.962 155.523 996.934 154.101 995.862 152.696C994.101 153.187 992.33 153.685 990.551 154.19C991.582 155.694 992.567 157.215 993.503 158.753C995.325 158.15 997.139 157.553 998.943 156.963ZM992.457 159.099C991.511 157.548 990.516 156.014 989.472 154.497C987.638 155.019 985.795 155.548 983.943 156.084C984.945 157.702 985.898 159.336 986.799 160.985C988.694 160.351 990.58 159.722 992.457 159.099ZM985.758 161.334C984.849 159.672 983.887 158.025 982.874 156.394C972.524 159.396 961.893 162.593 951.051 165.853L951.049 165.854C914.166 176.946 874.839 188.772 835.85 196.156C815.711 200.119 795.227 202.804 774.582 204.185L774.577 204.186C695.386 208.86 652.083 192.679 598.782 172.349C604.476 174.605 610.037 176.855 615.519 179.074L615.529 179.078C664.176 198.768 706.641 215.955 781.354 212.274C801.916 211.087 822.306 208.394 842.277 204.225L842.282 204.224C884.389 195.76 926.568 181.423 965.778 168.095L965.793 168.09C972.541 165.797 979.201 163.533 985.758 161.334ZM584.239 165.807C582.933 165.314 581.628 164.824 580.324 164.337C609.375 174.954 634.683 183.947 662.76 189.691C692.199 195.713 724.665 198.161 767.693 195.198L767.698 195.197C788.358 193.615 808.872 190.948 829.112 187.213C857.99 182.066 887.156 174.829 915.395 167.469C921.71 165.824 927.977 164.172 934.185 162.536C949.648 158.461 964.74 154.484 979.258 150.942C980.337 152.469 981.37 154.012 982.357 155.569C972.009 158.571 961.391 161.765 950.57 165.019L950.568 165.019C913.721 176.101 874.519 187.89 835.594 195.262L835.589 195.263C815.507 199.215 795.08 201.892 774.493 203.27C694.826 207.972 651.686 191.516 597.681 170.915C593.281 169.237 588.809 167.531 584.239 165.807ZM988.908 153.685C987.09 154.203 985.263 154.728 983.427 155.259C982.451 153.716 981.431 152.186 980.366 150.672C982.162 150.236 983.949 149.806 985.727 149.384C986.83 150.802 987.891 152.236 988.908 153.685ZM995.246 151.898C993.502 152.384 991.749 152.877 989.989 153.377C988.985 151.942 987.939 150.522 986.852 149.118C988.572 148.712 990.284 148.312 991.986 147.921C993.113 149.23 994.2 150.556 995.246 151.898ZM1001.59 150.151C999.85 150.624 998.1 151.104 996.341 151.593C995.311 150.265 994.242 148.954 993.134 147.658C993.506 147.573 993.877 147.489 994.248 147.405L996.162 146.973C996.866 146.815 997.568 146.659 998.269 146.504C999.414 147.703 1000.52 148.918 1001.59 150.151ZM1007.89 148.468C1006.17 148.919 1004.44 149.38 1002.71 149.849C1001.66 148.631 1000.57 147.429 999.447 146.244C1001.14 145.872 1002.83 145.508 1004.51 145.154C1005.67 146.242 1006.8 147.346 1007.89 148.468ZM1014.01 146.888C1012.36 147.306 1010.7 147.732 1009.03 148.168C1007.96 147.061 1006.86 145.972 1005.73 144.898C1007.36 144.558 1008.98 144.226 1010.59 143.904C1011.76 144.882 1012.9 145.876 1014.01 146.888ZM1020.09 145.382C1018.47 145.775 1016.83 146.178 1015.19 146.59C1014.11 145.594 1013 144.615 1011.86 143.652C1013.46 143.335 1015.06 143.027 1016.65 142.73C1017.82 143.597 1018.97 144.481 1020.09 145.382ZM1026.08 143.969C1024.51 144.331 1022.92 144.703 1021.32 145.086C1020.24 144.201 1019.12 143.333 1017.98 142.482C1019.55 142.194 1021.1 141.917 1022.64 141.651C1023.81 142.407 1024.96 143.18 1026.08 143.969ZM1031.97 142.661C1030.45 142.988 1028.92 143.325 1027.38 143.673C1026.3 142.902 1025.2 142.146 1024.07 141.406C1025.57 141.152 1027.06 140.908 1028.54 140.675C1029.71 141.321 1030.85 141.983 1031.97 142.661ZM1037.84 141.444C1036.35 141.74 1034.86 142.046 1033.36 142.364C1032.29 141.706 1031.21 141.062 1030.1 140.434C1031.57 140.209 1033.04 139.996 1034.49 139.794C1035.63 140.329 1036.74 140.879 1037.84 141.444ZM1043.34 140.396C1042.02 140.636 1040.69 140.886 1039.35 141.146C1038.33 140.603 1037.29 140.074 1036.22 139.558C1037.52 139.386 1038.8 139.223 1040.08 139.071C1041.18 139.498 1042.27 139.94 1043.34 140.396ZM1048.83 139.447C1047.58 139.652 1046.31 139.867 1045.03 140.092C1044.06 139.662 1043.08 139.245 1042.08 138.84C1043.32 138.701 1044.55 138.572 1045.78 138.453C1046.81 138.772 1047.83 139.103 1048.83 139.447ZM1054.03 138.653C1052.96 138.806 1051.88 138.967 1050.79 139.135C1049.93 138.825 1049.05 138.524 1048.17 138.232C1049.22 138.141 1050.27 138.057 1051.3 137.982C1052.22 138.196 1053.13 138.42 1054.03 138.653ZM1058.84 138.018C1058.03 138.116 1057.22 138.22 1056.4 138.328C1055.73 138.14 1055.06 137.958 1054.38 137.781C1055.16 137.736 1055.95 137.696 1056.72 137.66C1057.44 137.774 1058.14 137.893 1058.84 138.018ZM1062.78 137.578C1062.5 137.607 1062.21 137.636 1061.93 137.667C1061.68 137.615 1061.42 137.564 1061.17 137.514L1061.5 137.508C1061.64 137.505 1061.79 137.503 1061.93 137.501C1062.22 137.526 1062.5 137.551 1062.78 137.578ZM1052.09 137.005L1051.81 136.97L1051.61 136.967C1051.49 136.964 1051.37 136.962 1051.25 136.96L1050.99 136.956L1051.2 137.003L1051.41 137.052C1051.64 137.036 1051.86 137.02 1052.09 137.005ZM1048.22 137.305C1047.62 137.181 1047.01 137.061 1046.4 136.944C1045.65 136.952 1044.88 136.963 1044.11 136.979C1044.72 137.154 1045.32 137.332 1045.91 137.515C1046.69 137.441 1047.45 137.371 1048.22 137.305ZM1043.46 137.763C1042.62 137.525 1041.78 137.294 1040.93 137.071C1039.89 137.108 1038.84 137.153 1037.78 137.206C1038.62 137.504 1039.44 137.809 1040.26 138.122C1041.33 137.996 1042.4 137.876 1043.46 137.763ZM1038.22 138.37C1037.26 138.018 1036.29 137.675 1035.3 137.342C1034.17 137.41 1033.03 137.486 1031.89 137.57C1032.84 137.981 1033.78 138.402 1034.7 138.834C1035.88 138.671 1037.06 138.517 1038.22 138.37ZM1032.94 139.081C1031.92 138.618 1030.88 138.167 1029.82 137.728C1028.47 137.837 1027.1 137.957 1025.73 138.087C1026.76 138.614 1027.78 139.152 1028.79 139.702C1030.18 139.485 1031.57 139.278 1032.94 139.081ZM1027.21 139.951C1026.14 139.375 1025.04 138.812 1023.93 138.263C1022.54 138.402 1021.14 138.551 1019.73 138.71C1020.81 139.349 1021.87 140 1022.92 140.664C1024.36 140.417 1025.79 140.179 1027.21 139.951ZM1021.47 140.914C1020.37 140.228 1019.25 139.555 1018.11 138.897C1016.65 139.068 1015.18 139.25 1013.7 139.442C1014.81 140.19 1015.9 140.953 1016.96 141.729C1018.48 141.448 1019.98 141.176 1021.47 140.914ZM1015.62 141.982C1014.51 141.185 1013.37 140.404 1012.21 139.636C1010.7 139.838 1009.17 140.049 1007.64 140.269C1008.77 141.128 1009.87 142.001 1010.94 142.888C1012.51 142.577 1014.07 142.275 1015.62 141.982ZM1009.67 143.144C1008.55 142.238 1007.42 141.347 1006.25 140.471C1004.71 140.698 1003.15 140.934 1001.59 141.179C1002.72 142.146 1003.82 143.128 1004.9 144.124C1006.5 143.788 1008.09 143.461 1009.67 143.144ZM1003.68 144.382C1002.57 143.369 1001.44 142.37 1000.27 141.387C998.656 141.644 997.031 141.911 995.396 142.186C996.526 143.262 997.626 144.353 998.695 145.459C1000.36 145.091 1002.03 144.732 1003.68 144.382ZM997.513 145.72C996.42 144.598 995.294 143.491 994.136 142.399C992.632 142.656 991.119 142.919 989.599 143.19L989.174 143.265C990.298 144.45 991.389 145.649 992.446 146.862C993.59 146.6 994.729 146.342 995.865 146.087C996.415 145.964 996.964 145.842 997.513 145.72ZM987.957 143.484C986.312 143.781 984.659 144.085 982.997 144.397C984.108 145.688 985.183 146.993 986.222 148.311C987.922 147.909 989.613 147.514 991.295 147.126C990.217 145.898 989.104 144.684 987.957 143.484ZM985.095 148.578C984.038 147.245 982.944 145.925 981.813 144.62C980.089 144.946 978.356 145.28 976.613 145.621C977.709 147.019 978.767 148.43 979.787 149.855C981.565 149.423 983.334 148.997 985.095 148.578ZM981.107 143.811C979.402 144.135 977.689 144.466 975.967 144.803C974.898 143.463 973.795 142.135 972.659 140.819C974.346 140.569 976.025 140.327 977.695 140.092C978.865 141.319 980.003 142.558 981.107 143.811ZM987.184 142.683C985.563 142.977 983.932 143.279 982.294 143.587C981.212 142.351 980.097 141.127 978.951 139.916C980.304 139.729 981.65 139.547 982.99 139.37C983.236 139.337 983.482 139.305 983.728 139.273C984.911 140.396 986.063 141.533 987.184 142.683ZM989.36 142.293L988.405 142.463C987.31 141.33 986.185 140.211 985.031 139.104C986.633 138.898 988.226 138.701 989.81 138.511C990.998 139.529 992.157 140.561 993.287 141.606C991.984 141.83 990.675 142.059 989.36 142.293ZM999.331 140.602C997.747 140.856 996.154 141.119 994.552 141.391C993.453 140.364 992.326 139.351 991.172 138.35C992.739 138.167 994.296 137.993 995.843 137.827C997.032 138.739 998.195 139.663 999.331 140.602ZM1005.2 139.693C1003.69 139.917 1002.18 140.15 1000.65 140.391C999.556 139.473 998.432 138.568 997.284 137.675C998.774 137.521 1000.25 137.375 1001.73 137.237C1002.91 138.042 1004.07 138.861 1005.2 139.693ZM1011.03 138.865C1009.56 139.063 1008.09 139.271 1006.6 139.487C1005.51 138.678 1004.4 137.88 1003.27 137.096C1004.72 136.966 1006.16 136.845 1007.59 136.732C1008.76 137.43 1009.9 138.141 1011.03 138.865ZM1016.76 138.13C1015.36 138.299 1013.95 138.477 1012.53 138.664C1011.46 137.966 1010.38 137.279 1009.27 136.605C1010.66 136.503 1012.03 136.41 1013.4 136.326C1014.54 136.915 1015.66 137.516 1016.76 138.13ZM1022.35 137.499C1021.04 137.636 1019.72 137.782 1018.39 137.936C1017.37 137.352 1016.33 136.778 1015.27 136.216C1016.56 136.144 1017.85 136.08 1019.12 136.026C1020.21 136.506 1021.29 136.997 1022.35 137.499ZM1027.93 136.964C1026.69 137.071 1025.44 137.188 1024.17 137.313C1023.22 136.846 1022.25 136.389 1021.27 135.941C1022.51 135.897 1023.75 135.862 1024.97 135.835C1025.97 136.202 1026.96 136.578 1027.93 136.964ZM1032.94 136.573C1031.98 136.64 1031.01 136.711 1030.04 136.789C1029.21 136.45 1028.38 136.118 1027.54 135.792C1028.47 135.782 1029.4 135.776 1030.31 135.777C1031.2 136.035 1032.07 136.301 1032.94 136.573ZM1037.79 136.286C1037.02 136.324 1036.25 136.366 1035.48 136.411C1034.86 136.204 1034.24 136.001 1033.61 135.801C1034.37 135.813 1035.12 135.828 1035.87 135.847C1036.3 135.944 1036.74 136.042 1037.17 136.142L1037.37 136.188L1037.57 136.234L1037.79 136.286ZM1041.68 136.126C1041.48 136.133 1041.28 136.139 1041.08 136.146C1040.93 136.107 1040.78 136.067 1040.63 136.028L1040.8 136.037L1040.97 136.045L1041.26 136.061L1041.55 136.106L1041.68 136.126ZM1031.03 134.86L1030.72 134.803C1030.53 134.786 1030.33 134.769 1030.14 134.752L1030.31 134.802L1030.51 134.859C1030.68 134.859 1030.85 134.859 1031.03 134.86ZM1027.1 134.88C1026.48 134.714 1025.85 134.551 1025.22 134.392C1024.64 134.356 1024.05 134.323 1023.46 134.292C1024.04 134.495 1024.62 134.702 1025.2 134.912C1025.83 134.899 1026.47 134.888 1027.1 134.88ZM1022.57 134.98C1021.74 134.692 1020.9 134.411 1020.05 134.136C1019 134.096 1017.95 134.063 1016.88 134.036C1017.72 134.383 1018.55 134.736 1019.38 135.095C1020.45 135.051 1021.51 135.012 1022.57 134.98ZM1017.19 135.195C1016.21 134.782 1015.22 134.378 1014.21 133.982C1013.08 133.966 1011.95 133.956 1010.81 133.952C1011.78 134.422 1012.74 134.901 1013.69 135.387C1014.86 135.316 1016.03 135.252 1017.19 135.195ZM1011.79 135.507C1010.74 134.98 1009.66 134.462 1008.58 133.955C1007.33 133.961 1006.07 133.975 1004.8 133.996C1005.85 134.583 1006.89 135.179 1007.91 135.786C1009.21 135.685 1010.51 135.592 1011.79 135.507ZM1006.21 135.92C1005.11 135.281 1003.99 134.653 1002.85 134.035C1001.52 134.066 1000.17 134.105 998.819 134.152C999.923 134.85 1001.01 135.56 1002.07 136.281C1003.46 136.153 1004.84 136.032 1006.21 135.92ZM1000.52 136.427C999.393 135.678 998.244 134.941 997.075 134.216C995.687 134.271 994.289 134.333 992.883 134.404C994.018 135.212 995.132 136.031 996.224 136.861C997.665 136.708 999.097 136.564 1000.52 136.427ZM994.774 137.017C993.633 136.162 992.469 135.318 991.283 134.487C989.809 134.567 988.326 134.655 986.834 134.751C987.987 135.668 989.116 136.595 990.222 137.535C991.748 137.354 993.266 137.181 994.774 137.017ZM988.852 137.699C987.707 136.737 986.537 135.787 985.342 134.85C983.823 134.953 982.296 135.064 980.759 135.183C981.922 136.206 983.059 137.24 984.17 138.286C985.739 138.082 987.3 137.886 988.852 137.699ZM979.348 135.294C978.367 135.373 977.383 135.455 976.395 135.539L976.188 135.557C975.979 135.575 975.77 135.593 975.561 135.612C975.295 135.635 975.03 135.658 974.764 135.682C975.926 136.808 977.061 137.945 978.167 139.094C979.723 138.877 981.271 138.667 982.811 138.463L982.861 138.457C981.717 137.39 980.546 136.336 979.348 135.294ZM976.906 139.272C975.772 138.103 974.609 136.947 973.417 135.803C971.803 135.951 970.18 136.106 968.549 136.268C969.709 137.498 970.839 138.74 971.939 139.993C973.603 139.745 975.259 139.505 976.906 139.272ZM553.482 150.398C544.295 147.328 535.459 144.206 526.833 141.074C532.848 143.222 539.014 145.336 545.373 147.4C611.311 168.807 655.62 168.436 740.333 159.225C757.477 157.342 775.352 154.983 794.111 152.507L794.129 152.505C795.926 152.268 797.73 152.03 799.542 151.791L802.347 151.422C816.336 149.575 830.516 147.566 844.7 145.557L844.703 145.556C885.551 139.769 926.438 133.976 962.932 132.037C964.129 133.199 965.3 134.372 966.444 135.556C936.762 138.605 904.323 144.015 871.393 149.507C850.54 152.985 829.492 156.496 808.822 159.461C787.266 162.558 766.712 165.35 747.047 167.302C704.56 171.491 672.342 172.681 642.665 170.119C612.995 167.557 585.838 161.242 553.482 150.398ZM972.532 134.961C970.945 135.108 969.35 135.262 967.746 135.424C966.631 134.26 965.49 133.107 964.324 131.964C965.896 131.885 967.461 131.812 969.016 131.748C970.213 132.808 971.385 133.879 972.532 134.961ZM976.278 134.626C975.483 134.695 974.685 134.765 973.885 134.837C972.773 133.777 971.636 132.728 970.476 131.689C971.942 131.633 973.4 131.583 974.85 131.54C976.046 132.499 977.22 133.47 978.369 134.451C977.674 134.508 976.977 134.566 976.278 134.626ZM984.251 134.004C982.772 134.107 981.284 134.219 979.788 134.337C978.679 133.38 977.548 132.434 976.396 131.498C977.86 131.46 979.316 131.429 980.763 131.406C981.947 132.261 983.11 133.127 984.251 134.004ZM990.052 133.636C988.628 133.717 987.195 133.805 985.753 133.901C984.663 133.052 983.552 132.213 982.421 131.383C983.829 131.367 985.228 131.358 986.618 131.357C987.782 132.106 988.927 132.865 990.052 133.636ZM995.668 133.355C994.342 133.412 993.007 133.476 991.665 133.547C990.603 132.808 989.524 132.079 988.427 131.36C989.735 131.365 991.035 131.377 992.326 131.397C993.457 132.039 994.571 132.692 995.668 133.355ZM1001.21 133.158C999.957 133.193 998.697 133.235 997.429 133.283C996.414 132.658 995.385 132.041 994.341 131.433C995.575 131.459 996.802 131.492 998.02 131.532C999.098 132.065 1000.16 132.607 1001.21 133.158ZM1006.61 133.053C1005.47 133.065 1004.33 133.084 1003.18 133.11C1002.24 132.605 1001.29 132.107 1000.33 131.617C1001.45 131.663 1002.56 131.714 1003.67 131.772C1004.66 132.191 1005.64 132.618 1006.61 133.053ZM1011.75 133.039C1010.79 133.033 1009.84 133.032 1008.87 133.035C1008.07 132.662 1007.26 132.294 1006.44 131.931C1007.37 131.989 1008.29 132.052 1009.21 132.12C1010.07 132.421 1010.91 132.727 1011.75 133.039ZM1016.77 133.115C1016.41 133.106 1016.05 133.098 1015.68 133.09L1015.43 133.085L1015.19 133.081C1014.95 133.076 1014.72 133.072 1014.48 133.068C1013.91 132.845 1013.33 132.624 1012.75 132.406C1013.54 132.476 1014.33 132.55 1015.11 132.627C1015.38 132.707 1015.66 132.788 1015.94 132.869C1016.22 132.95 1016.49 133.032 1016.77 133.115ZM1009.64 131.23L1009.43 131.195L1009.49 131.219L1009.64 131.23ZM1005.85 130.974C1005.29 130.79 1004.72 130.607 1004.15 130.427C1003.55 130.347 1002.95 130.269 1002.35 130.193C1002.89 130.416 1003.43 130.641 1003.97 130.868C1004.6 130.901 1005.23 130.937 1005.85 130.974ZM1001.15 130.732C1000.33 130.403 999.508 130.079 998.677 129.76C997.778 129.66 996.873 129.565 995.964 129.474C996.767 129.853 997.564 130.236 998.353 130.625C999.29 130.656 1000.22 130.692 1001.15 130.732ZM996.005 130.554C995.044 130.097 994.072 129.646 993.09 129.202C992.024 129.106 990.951 129.016 989.872 128.931C990.821 129.442 991.759 129.96 992.687 130.484C993.799 130.502 994.905 130.525 996.005 130.554ZM990.648 130.457C989.603 129.881 988.545 129.313 987.473 128.753C986.3 128.67 985.121 128.593 983.934 128.523C984.972 129.154 985.996 129.792 987.006 130.439C988.227 130.439 989.441 130.445 990.648 130.457ZM985.18 130.443C984.083 129.754 982.971 129.075 981.842 128.405C980.55 128.336 979.249 128.275 977.941 128.219C979.036 128.965 980.116 129.719 981.178 130.482C982.52 130.462 983.854 130.449 985.18 130.443ZM979.508 130.51C978.379 129.712 977.232 128.924 976.066 128.145C974.7 128.095 973.326 128.051 971.944 128.015C973.078 128.87 974.194 129.735 975.291 130.609C976.704 130.569 978.11 130.536 979.508 130.51ZM970.225 127.973C968.853 127.942 967.473 127.919 966.085 127.901C967.239 128.861 968.372 129.831 969.484 130.809L969.787 130.797C971.11 130.744 972.426 130.697 973.736 130.656C972.586 129.751 971.416 128.857 970.225 127.973ZM968.018 130.871C966.862 129.865 965.685 128.87 964.485 127.884C964.051 127.881 963.616 127.877 963.18 127.875C962.118 127.868 961.052 127.866 959.982 127.867C961.152 128.932 962.3 130.006 963.425 131.091C964.964 131.01 966.495 130.937 968.018 130.871ZM962.027 131.165C960.866 130.057 959.681 128.959 958.473 127.87C913.776 128.048 862.143 134.354 812.324 140.438L812.314 140.44C806.707 141.125 801.122 141.807 795.573 142.477C784.717 143.788 774.151 145.132 763.873 146.439L763.867 146.44C753.431 147.767 743.292 149.056 733.45 150.235C649.091 160.252 604.639 164.673 537.656 143.551L537.652 143.55C531.258 141.488 524.912 139.331 518.619 137.08C527.345 140.312 536.354 143.484 545.788 146.547C611.466 167.87 655.551 167.517 740.184 158.316C757.313 156.433 775.171 154.077 793.932 151.601C796.658 151.241 799.403 150.879 802.168 150.515C816.124 148.673 830.282 146.667 844.453 144.659C885.007 138.914 925.672 133.153 962.027 131.165ZM538.063 142.695C529.781 140.025 521.581 137.195 513.469 134.206C518.929 136.133 524.442 137.966 530.002 139.702L530.006 139.703C592.725 158.895 635.526 153.225 707.609 143.677C713.73 142.866 720.061 142.027 726.634 141.174C728.29 140.957 729.954 140.739 731.627 140.52C749.644 138.161 768.666 135.67 788.903 133.446C844.211 127.392 903.594 121.542 953.802 123.813C955.04 124.851 956.257 125.9 957.451 126.957C912.899 127.226 861.589 133.493 812.167 139.529C806.552 140.215 800.962 140.898 795.409 141.569C784.502 142.886 773.951 144.228 763.692 145.533L763.685 145.534C753.273 146.858 743.163 148.144 733.287 149.327C648.938 159.343 604.748 163.723 538.063 142.695ZM963.188 126.957C961.788 126.948 960.381 126.946 958.967 126.951C957.818 125.922 956.648 124.902 955.458 123.891C955.847 123.91 956.235 123.93 956.622 123.95C957.665 124.004 958.703 124.061 959.737 124.122C960.961 125.058 962.164 126.003 963.347 126.958L963.188 126.957ZM968.94 127.028C967.619 127.003 966.291 126.984 964.956 126.971C963.828 126.049 962.682 125.136 961.516 124.232C962.807 124.314 964.091 124.402 965.367 124.496C966.576 125.33 967.768 126.174 968.94 127.028ZM974.596 127.175C973.295 127.132 971.987 127.095 970.671 127.065C969.568 126.249 968.448 125.442 967.312 124.644C968.588 124.745 969.857 124.852 971.119 124.965C972.294 125.692 973.454 126.429 974.596 127.175ZM980.123 127.398C978.918 127.34 977.706 127.288 976.488 127.242C975.435 126.542 974.368 125.85 973.287 125.166C974.461 125.279 975.628 125.397 976.788 125.521C977.914 126.139 979.026 126.764 980.123 127.398ZM985.41 127.693C984.358 127.626 983.301 127.564 982.238 127.506C981.264 126.93 980.278 126.361 979.281 125.798C980.292 125.914 981.297 126.035 982.297 126.161C983.346 126.664 984.384 127.175 985.41 127.693ZM990.507 128.06C989.624 127.989 988.736 127.921 987.844 127.858C986.997 127.417 986.141 126.981 985.278 126.55C986.109 126.663 986.937 126.78 987.76 126.9C988.684 127.281 989.6 127.667 990.507 128.06ZM995.228 128.477C994.633 128.419 994.035 128.364 993.436 128.309C992.819 128.031 992.198 127.756 991.572 127.483C992.098 127.568 992.621 127.654 993.143 127.741C993.842 127.983 994.537 128.229 995.228 128.477ZM984.207 125.477C983.781 125.311 983.354 125.147 982.925 124.984C982.789 124.956 982.654 124.928 982.518 124.901L982.171 124.831L982.033 124.803L981.717 124.74L981.41 124.679C981.834 124.878 982.257 125.078 982.679 125.28C983.189 125.344 983.699 125.41 984.207 125.477ZM979.643 124.913C978.924 124.582 978.2 124.254 977.471 123.929C976.679 123.784 975.884 123.643 975.084 123.504C975.793 123.879 976.496 124.258 977.194 124.639C978.014 124.728 978.83 124.819 979.643 124.913ZM974.668 124.377C973.785 123.908 972.894 123.444 971.996 122.985C970.985 122.821 969.968 122.661 968.946 122.505C969.822 123.025 970.69 123.55 971.549 124.08C972.593 124.175 973.633 124.274 974.668 124.377ZM969.357 123.888C968.372 123.294 967.376 122.706 966.369 122.124C965.22 121.959 964.065 121.799 962.903 121.644C963.887 122.293 964.859 122.947 965.82 123.608C967.005 123.696 968.184 123.79 969.357 123.888ZM963.859 123.466C962.805 122.755 961.738 122.05 960.657 121.353C959.483 121.205 958.303 121.061 957.117 120.924C958.162 121.686 959.195 122.455 960.214 123.23C961.435 123.304 962.65 123.383 963.859 123.466ZM958.422 123.127C957.332 122.309 956.227 121.498 955.106 120.695C953.764 120.547 952.414 120.404 951.056 120.268C952.153 121.144 953.235 122.026 954.301 122.916C955.101 122.953 955.898 122.992 956.693 123.034C957.271 123.063 957.847 123.094 958.422 123.127ZM952.635 122.843C951.512 121.917 950.372 120.998 949.216 120.088C898.516 115.247 838.004 119.072 782.254 124.544C759.966 126.742 739.323 129.491 719.84 132.212C706.899 134.016 694.889 135.839 683.576 137.557L683.572 137.557L683.569 137.558L683.565 137.559L683.56 137.559L683.558 137.56C621.775 146.94 580.768 153.167 522.396 135.824L522.393 135.823C516.522 134.051 510.717 132.145 504.984 130.108C513.332 133.247 521.809 136.161 530.401 138.843C592.832 157.947 635.35 152.316 707.473 142.765L707.475 142.764C713.58 141.956 719.897 141.119 726.457 140.267C728.109 140.051 729.77 139.834 731.44 139.615L731.451 139.614C749.466 137.254 768.501 134.762 788.753 132.536C843.596 126.533 902.565 120.715 952.635 122.843ZM522.781 134.962C515.518 132.769 508.357 130.371 501.308 127.773C505.71 129.271 510.162 130.677 514.658 131.99L514.66 131.99C570.233 148.017 609.989 140.981 665.554 131.147C680.08 128.576 695.686 125.814 712.938 123.223C732.328 120.329 753.021 117.552 775.48 115.6C831.35 110.73 892.508 109.002 943.435 116.292C943.642 116.321 943.849 116.351 944.056 116.381L944.424 116.435C945.587 117.295 946.736 118.163 947.869 119.038C897.333 114.396 837.342 118.213 782.12 123.632C759.804 125.834 739.138 128.585 719.65 131.307C706.668 133.117 694.632 134.943 683.304 136.663C621.536 146.037 580.846 152.213 522.781 134.962ZM950.143 119.254L949.721 119.213C948.662 118.383 947.59 117.56 946.505 116.744C947.765 116.935 949.018 117.132 950.265 117.334C951.378 118.083 952.478 118.839 953.565 119.602C952.429 119.481 951.289 119.365 950.143 119.254ZM958.852 120.202C957.77 120.071 956.683 119.945 955.591 119.823C954.601 119.116 953.6 118.415 952.588 117.719C953.635 117.897 954.677 118.078 955.713 118.264C956.771 118.904 957.817 119.549 958.852 120.202ZM964.2 120.889C963.178 120.749 962.152 120.614 961.121 120.483C960.218 119.902 959.306 119.325 958.385 118.754C959.384 118.942 960.378 119.133 961.366 119.329C962.32 119.844 963.264 120.364 964.2 120.889ZM969.274 121.621C968.456 121.497 967.635 121.375 966.81 121.255C966.067 120.827 965.318 120.402 964.563 119.98C965.352 120.145 966.137 120.313 966.918 120.483C967.709 120.859 968.494 121.238 969.274 121.621ZM973.834 122.353C973.362 122.273 972.889 122.195 972.415 122.117C971.948 121.879 971.479 121.643 971.007 121.407C971.44 121.509 971.872 121.611 972.303 121.714C972.815 121.926 973.326 122.138 973.834 122.353ZM963.17 118.746C962.741 118.552 962.31 118.359 961.878 118.167C961.693 118.117 961.508 118.066 961.322 118.015C961.079 117.949 960.835 117.883 960.591 117.818C960.794 117.925 960.995 118.032 961.197 118.14C961.405 118.251 961.613 118.363 961.82 118.475C962.271 118.564 962.721 118.655 963.17 118.746ZM958.573 117.848C957.843 117.468 957.109 117.091 956.37 116.717C955.604 116.523 954.834 116.332 954.06 116.143C954.774 116.563 955.483 116.985 956.187 117.409C956.985 117.553 957.78 117.699 958.573 117.848ZM953.483 116.934C952.58 116.404 951.67 115.877 950.752 115.356C949.893 115.156 949.032 114.96 948.166 114.766C949.038 115.333 949.903 115.904 950.76 116.479C951.671 116.628 952.579 116.779 953.483 116.934ZM948.415 116.104C947.422 115.451 946.42 114.804 945.407 114.162C944.277 113.92 943.141 113.683 942 113.45C942.989 114.154 943.968 114.863 944.937 115.577C946.102 115.748 947.261 115.924 948.415 116.104ZM942.841 115.276C941.772 114.501 940.69 113.732 939.597 112.97C938.681 112.79 937.761 112.613 936.837 112.439C885.843 102.832 824.398 102.467 768.78 106.698C747.74 108.346 726.817 110.876 706.094 114.276L706.092 114.276C685.579 117.562 667.4 121.286 650.57 124.733L649.999 124.85C633.015 128.328 617.389 131.518 602.137 133.671C571.611 137.98 542.568 138.138 506.979 128.185L506.977 128.184C502.411 126.89 497.898 125.485 493.443 123.972C500.509 126.6 507.712 128.987 515.036 131.125C570.284 147.058 609.685 140.087 665.187 130.268L665.191 130.268C679.741 127.694 695.397 124.924 712.736 122.32C732.139 119.424 752.863 116.642 775.361 114.687C830.981 109.839 891.919 108.094 942.841 115.276ZM406.994 77.9631C405.317 76.5919 403.677 75.2083 402.067 73.8173L401.787 73.6442C401.658 73.5647 401.529 73.4853 401.4 73.4062C403.159 74.9105 404.96 76.3988 406.812 77.8656L406.994 77.9631ZM402.463 75.6243C400.468 73.9605 398.53 72.2752 396.639 70.5762C396.016 70.2192 395.391 69.8664 394.764 69.5183C396.82 71.3639 398.939 73.185 401.132 74.9726C401.577 75.1876 402.02 75.4048 402.463 75.6243ZM404.889 77.9428C406.827 79.4274 408.823 80.884 410.885 82.307C409.485 81.2599 408.108 80.1897 406.755 79.0966C406.538 78.9267 406.322 78.7565 406.107 78.586C405.702 78.3699 405.296 78.1555 404.889 77.9428ZM391.865 66.8629C392.429 67.1554 392.991 67.4519 393.551 67.7521C392.35 66.6362 391.168 65.5164 390 64.3949C389.328 63.9714 388.653 63.553 387.975 63.1398C389.249 64.3878 390.544 65.6297 391.865 66.8629ZM397.642 70.0301C397.763 70.0999 397.884 70.1699 398.005 70.24C397.19 69.5092 396.382 68.7776 395.58 68.0459C395.318 67.8685 395.056 67.6918 394.793 67.5157C395.649 68.3076 396.513 69.0971 397.387 69.8835L397.642 70.0301ZM507.343 127.316C499.65 125.136 492.107 122.639 484.742 119.839C489.517 121.476 494.37 122.971 499.291 124.321L499.293 124.322C535.407 134.125 564.742 132.884 595.385 127.429C609.08 124.991 623.044 121.709 637.981 118.2C639.74 117.786 641.513 117.369 643.3 116.951C660.27 112.975 678.576 108.8 699.24 105.272L699.242 105.272C719.966 101.656 740.952 99.1355 762.072 97.7246C817.447 94.1087 879.18 96.5954 930.243 108.545C931.713 108.889 933.175 109.241 934.627 109.6C935.66 110.281 936.683 110.967 937.697 111.659C937.495 111.621 937.293 111.582 937.09 111.544C885.933 101.907 824.354 101.548 768.675 105.784L768.673 105.784C747.595 107.435 726.635 109.969 705.874 113.376C685.334 116.666 667.131 120.394 650.306 123.84L649.726 123.959C632.734 127.439 617.149 130.62 601.946 132.766C571.562 137.055 542.716 137.209 507.343 127.316ZM943.123 112.734C942.126 112.528 941.125 112.327 940.12 112.128C939.249 111.522 938.37 110.92 937.484 110.322C938.467 110.574 939.445 110.831 940.418 111.091C941.327 111.634 942.229 112.182 943.123 112.734ZM947.879 113.751C947.226 113.607 946.57 113.463 945.913 113.322C945.226 112.887 944.534 112.455 943.838 112.025C944.436 112.193 945.033 112.361 945.628 112.531C946.383 112.935 947.133 113.342 947.879 113.751ZM952.069 114.709C951.792 114.644 951.515 114.579 951.238 114.514C950.828 114.282 950.418 114.051 950.006 113.821C950.255 113.896 950.505 113.972 950.754 114.048C950.909 114.096 951.064 114.144 951.22 114.192C951.657 114.399 952.093 114.608 952.527 114.818C952.375 114.781 952.222 114.745 952.069 114.709ZM391.173 63.9756C390.989 63.8032 390.804 63.6308 390.62 63.4585C389.58 62.4864 388.549 61.5169 387.523 60.5514L387.5 60.5341C388.582 61.5991 389.674 62.664 390.78 63.7269C390.911 63.8096 391.042 63.8925 391.173 63.9756ZM386.834 61.3156C385.679 60.18 384.537 59.0447 383.406 57.912C383.02 57.5256 382.635 57.1396 382.252 56.754C381.688 56.3629 381.123 55.9758 380.555 55.5929C382.066 57.1797 383.6 58.7652 385.165 60.3443C385.723 60.6643 386.28 60.9881 386.834 61.3156ZM477.547 116.233C484.731 118.971 492.109 121.382 499.647 123.451C535.522 133.189 564.644 131.962 595.146 126.532C608.803 124.1 622.73 120.828 637.673 117.317L637.696 117.311C639.446 116.9 641.211 116.485 642.991 116.068C659.964 112.092 678.302 107.909 699.009 104.374C719.779 100.75 740.814 98.2236 761.982 96.8096C817.444 93.188 879.321 95.6734 930.552 107.662C930.802 107.72 931.051 107.779 931.3 107.838C931.479 107.88 931.657 107.922 931.835 107.965L932.273 108.069C931.391 107.503 930.503 106.94 929.607 106.382C927.664 105.8 925.702 105.234 923.724 104.682C872.593 90.4046 810.574 85.8078 755.441 88.7793C734.245 89.951 713.191 92.4543 692.465 96.2671L692.463 96.2674C671.874 100.001 653.615 104.58 636.657 109.053C633.354 109.925 630.098 110.792 626.884 111.649C613.61 115.187 601.04 118.536 588.664 121.192C557.89 127.797 528.251 130.126 491.61 120.472C486.85 119.209 482.158 117.794 477.547 116.233ZM935.16 108.773C935.932 108.965 936.702 109.159 937.469 109.356C936.786 108.96 936.099 108.567 935.408 108.176C934.656 107.936 933.901 107.697 933.143 107.461C933.819 107.896 934.492 108.334 935.16 108.773ZM940.936 110.264C941.178 110.328 941.42 110.393 941.661 110.459C941.249 110.248 940.834 110.038 940.419 109.828L939.917 109.658C940.258 109.86 940.597 110.061 940.936 110.264ZM377.663 52.5274C378.028 52.758 378.392 52.9905 378.755 53.2246L378.153 52.6149C377.518 51.9725 376.885 51.3321 376.254 50.6942L376.241 50.684C375.904 50.4242 375.566 50.1659 375.227 49.9091C376.034 50.7806 376.846 51.6536 377.663 52.5274ZM491.956 119.599C484.536 117.629 477.286 115.29 470.245 112.6C474.709 114.093 479.256 115.436 483.873 116.623C521.039 126.126 550.975 122.709 581.856 114.957C593.198 112.11 604.68 108.675 616.689 105.082C621.011 103.789 625.402 102.475 629.878 101.161C646.804 96.1936 664.991 91.2119 685.473 87.277L685.475 87.2766C706.219 83.2284 727.37 80.7276 748.667 79.8051C803.557 77.4486 865.863 84.1512 917.063 100.762C919.563 101.573 922.036 102.407 924.481 103.266C925.181 103.68 925.878 104.097 926.571 104.516C925.746 104.279 924.918 104.045 924.088 103.813C872.784 89.4877 810.61 84.8857 755.366 87.8633C734.113 89.0382 713.001 91.5483 692.219 95.3713C671.578 99.1141 653.28 103.704 636.312 108.18C633 109.053 629.739 109.922 626.522 110.78C613.25 114.317 600.72 117.656 588.379 120.305C557.743 126.879 528.333 129.183 491.956 119.599ZM931.346 105.927C930.949 105.807 930.551 105.686 930.152 105.567C929.82 105.36 929.488 105.154 929.155 104.949L929.488 105.072L929.81 105.192C929.996 105.261 930.182 105.33 930.367 105.399C930.694 105.575 931.021 105.751 931.346 105.927ZM461.961 108.604C469.148 111.397 476.581 113.786 484.21 115.747C521.089 125.177 550.779 121.798 581.526 114.08C592.837 111.241 604.278 107.817 616.278 104.227C620.606 102.932 625.006 101.616 629.498 100.297C646.439 95.3251 664.672 90.3301 685.215 86.3835C706.025 82.3225 727.242 79.8138 748.607 78.8883C803.633 76.526 866.104 83.2416 917.478 99.9086C918.417 100.213 919.352 100.521 920.283 100.832C920.022 100.684 919.76 100.536 919.498 100.388C916.539 99.1923 913.535 98.032 910.492 96.9073C859.219 77.9592 796.621 69.1478 741.964 70.8895C720.619 71.5644 699.417 74.0435 678.697 78.2871C658.312 82.4271 640.186 87.8127 623.282 93.2762C617.891 95.0186 612.621 96.7702 607.44 98.4922C596.388 102.165 585.743 105.703 575.202 108.728C544.197 117.625 513.953 122.128 476.262 112.775C471.406 111.569 466.634 110.176 461.961 108.604ZM476.589 111.896C468.872 109.98 461.368 107.589 454.14 104.751C458.878 106.345 463.727 107.739 468.669 108.925C506.921 118.128 537.45 112.536 568.558 102.492C578.46 99.2953 588.405 95.6539 598.674 91.8946C620.698 83.8311 644.206 75.2244 671.938 69.2967L671.939 69.2964C692.644 64.8195 713.92 62.3469 735.331 61.9294L735.333 61.9294C789.748 60.7227 852.633 71.6424 903.978 92.9481C906.938 94.1764 909.86 95.4391 912.739 96.7358C912.146 96.5128 911.551 96.2911 910.955 96.0709C859.509 77.0587 796.735 68.2254 741.92 69.9721C720.498 70.6495 699.22 73.1375 678.425 77.3964C657.97 81.5506 639.793 86.9526 622.869 92.4225C617.454 94.1726 612.171 95.9284 606.984 97.6523C595.947 101.321 585.344 104.845 574.829 107.862C543.954 116.722 513.97 121.172 476.589 111.896ZM447.786 101.455C454.61 104.089 461.697 106.295 468.986 108.044C506.905 117.167 537.161 111.642 568.145 101.638C577.96 98.4695 587.861 94.8451 598.105 91.0949C620.172 83.017 643.832 74.3554 671.652 68.4088C692.441 63.9137 713.805 61.431 735.303 61.0117C788.109 59.8407 848.843 70.0475 899.382 90.0601C898.694 89.7381 898.004 89.418 897.311 89.0998C845.896 65.4738 782.722 52.4498 728.539 52.9844C669.424 53.5725 627.761 70.2322 590.094 85.2938C587.993 86.1342 585.904 86.9696 583.824 87.797C544.49 103.45 508.724 116.244 460.896 105.076C456.306 104.005 451.943 102.793 447.786 101.455Z" fill="#E5E5E5" fill-opacity="0.6"/>
</g>
</svg>
