<?xml version="1.0"?>
<svg width="1160" height="447" xmlns="http://www.w3.org/2000/svg" xmlns:svg="http://www.w3.org/2000/svg" transform="scale(1 -1)">
 <g class="layer">
  <title>Layer 1</title>
  <g id="svg_1" opacity="0.5" transform="rotate(-179.939 579.595 223.154)">
   <path clip-rule="evenodd" d="m305.29,1.41c-29.61,-5.2 -67.68,3.1 -117.45,39.29c-49.76,36.19 -111.29,100.34 -187.84,207l0.97,0.47c76.53,-106.64 137.99,-170.69 187.62,-206.79c49.63,-36.09 87.36,-44.18 116.46,-39.07c20.28,3.57 34.6,13.23 47.57,25.45c-11.38,-8.55 -24.25,-15 -41.03,-17.39c-30.01,-4.24 -68.3,4.95 -117.94,41.41c-49.65,36.46 -110.73,100.25 -186.35,205.37l0.97,0.47c75.6,-105.09 136.61,-168.79 186.13,-205.16c49.52,-36.37 87.47,-45.36 117,-41.18c20.59,2.93 35.24,12.07 48.6,23.8c0.46,0.47 0.92,0.95 1.37,1.43c-12.12,-8.73 -25.75,-15.23 -43.64,-17.17c-30.36,-3.28 -68.81,6.79 -118.31,43.51c-49.5,36.72 -110.11,100.15 -184.81,203.73l0.97,0.46c74.67,-103.54 135.22,-166.88 184.59,-203.51c49.38,-36.63 87.52,-46.51 117.41,-43.28c19.99,2.17 34.6,10.11 47.86,20.58c0.83,0.9 1.67,1.8 2.51,2.71c-12.31,-8.06 -26.1,-13.9 -44.01,-15.24c-30.74,-2.3 -69.39,8.66 -118.76,45.63c-49.37,36.99 -109.52,100.04 -183.27,202.04l0.97,0.47c73.72,-101.98 133.81,-164.94 183.06,-201.83c49.25,-36.89 87.61,-47.67 117.9,-45.4c19.4,1.46 33.91,8.26 47.05,17.52c1.04,1.13 2.09,2.27 3.14,3.41l0.36,0.39c-12.47,-7.36 -26.39,-12.5 -44.22,-13.26c-31.14,-1.32 -69.99,10.52 -119.23,47.76c-49.23,37.24 -108.91,99.93 -181.73,200.41l0.97,0.46c72.79,-100.44 132.41,-163.04 181.53,-200.2c49.12,-37.15 87.69,-48.82 118.4,-47.51c19.06,0.8 33.59,6.69 46.75,14.99c1.69,1.8 3.4,3.61 5.15,5.41c-12.94,-6.95 -27.3,-11.76 -45.59,-12.36c-31.54,-1.05 -70.6,11.69 -119.71,49.36c-49.12,37.68 -108.36,100.35 -180.27,199.28l0.96,0.47c71.89,-98.9 131.07,-161.49 180.08,-199.08c49.01,-37.59 87.79,-50.14 118.89,-49.11c19.46,0.63 34.41,6.1 48.02,13.87c1.41,1.43 2.85,2.85 4.32,4.26c-13.17,-6.37 -27.74,-10.5 -46.09,-10.16l0,0c-31.95,0.73 -71.19,14.36 -120.15,52.12c-48.97,37.76 -107.7,99.68 -178.64,197.07l0.96,0.47c70.92,-97.35 129.59,-159.19 178.45,-196.87c48.86,-37.68 87.85,-51.15 119.41,-51.87c19.48,-0.37 34.64,4.37 48.48,11.53c2.07,1.93 4.21,3.85 6.43,5.74c-13.98,-6.26 -29.35,-10.15 -48.71,-9.14c-32.36,1.65 -71.81,16.15 -120.65,54.16c-48.83,38.01 -107.09,99.57 -177.08,195.42l0.97,0.47c69.96,-95.81 128.16,-157.29 176.89,-195.22c48.73,-37.94 87.95,-52.28 119.94,-53.92c20.69,-1.07 36.75,3.5 51.52,10.62c2.75,2.25 5.63,4.44 8.64,6.56c-15.53,-6.77 -32.42,-10.94 -54.02,-9.16c-32.76,2.71 -72.4,18.11 -121.09,56.37c-48.69,38.26 -106.48,99.42 -175.55,193.72l0.97,0.47c69.04,-94.27 126.77,-155.35 175.36,-193.53c48.59,-38.18 88,-53.43 120.43,-56.12c22.39,-1.85 39.66,2.78 55.7,10.1l5.68,3.07c4.2,2.57 8.65,5.01 13.43,7.26l20.87,11.3c-1.1,-0.57 -2.19,-1.15 -3.28,-1.71l-0.05,-0.03c-1.68,-0.88 -3.35,-1.75 -5.01,-2.61c-8.02,-4.15 -15.93,-8.11 -24.17,-11.39c-16.5,-6.57 -34.33,-10.45 -57.06,-7.89c-33.18,3.72 -73.01,19.99 -121.56,58.49c-48.55,38.5 -105.86,99.26 -173.99,192.01l0.96,0.47c68.11,-92.71 125.36,-153.4 173.81,-191.82c48.46,-38.42 88.08,-54.56 120.94,-58.24c22.46,-2.53 40.06,1.29 56.41,7.8c8.18,3.26 16.04,7.19 24.06,11.35c1.65,0.86 3.32,1.72 4.99,2.6c6.41,3.34 12.97,6.77 19.89,10.03c0.95,0.46 1.9,0.91 2.85,1.36c-4.22,-1.91 -8.34,-3.86 -12.4,-5.78c-27.15,-12.83 -52.16,-24.65 -89.77,-19.31c-33.57,4.77 -73.6,21.93 -122.01,60.67c-48.41,38.74 -105.24,99.1 -172.43,190.31l0.96,0.47c67.17,-91.18 123.94,-151.46 172.26,-190.12c48.32,-38.67 88.14,-55.7 121.41,-60.43c37.18,-5.27 61.79,6.35 88.92,19.16c5.74,2.72 11.6,5.48 17.71,8.15c4.27,1.91 8.58,3.78 12.91,5.6c-1.63,-0.65 -3.25,-1.3 -4.87,-1.96c-5.09,-2.04 -10.04,-4.15 -14.92,-6.23l-0.01,-0.01l-0.01,0c-28.43,-12.11 -54.7,-23.3 -93.65,-16.65c-33.99,5.82 -74.22,23.87 -122.5,62.85c-48.28,38.99 -104.65,98.94 -170.91,188.6l0.96,0.48c66.24,-89.63 122.55,-149.51 170.74,-188.42c48.19,-38.92 88.24,-56.85 121.94,-62.61c38.53,-6.58 64.43,4.44 92.85,16.54l0,0c4.91,2.09 9.88,4.21 15.02,6.28c10.26,4.13 20.66,8.28 31.47,12.36c-3.5,-1.3 -6.97,-2.59 -10.43,-3.88c-4.37,-1.63 -8.71,-3.25 -13.05,-4.85c-3.96,-1.47 -7.86,-2.96 -11.72,-4.43l-0.01,-0.01l0,0c-29.88,-11.42 -57.62,-22.03 -98.15,-13.93c-34.43,6.86 -74.85,25.81 -122.99,65.05c-48.13,39.23 -104,98.77 -169.33,186.86l0.96,0.47c65.3,-88.05 121.12,-147.52 169.17,-186.68c48.04,-39.17 88.29,-58 122.46,-64.81c40.13,-8.02 67.51,2.45 97.39,13.87l0,0l0.01,0c3.86,1.48 7.77,2.97 11.74,4.44c4.33,1.6 8.65,3.21 13.01,4.83l0.03,0.02c16.23,6.05 32.78,12.22 50.65,18.19c32.42,10.87 59.68,17.21 89.49,19.78c29.8,2.57 62.11,1.38 104.63,-2.82c19.7,-1.95 40.28,-4.75 61.84,-7.84c20.74,-2.98 41.82,-6.5 62.69,-9.98c33.13,-5.52 65.73,-10.96 95.54,-13.99c1.19,1.25 2.34,2.51 3.47,3.78c-21.9,3.29 -45.2,7.78 -69.09,12.45c-1.32,0.26 -2.64,0.52 -3.96,0.78l-2.85,0.56c-26.19,5.13 -52.98,10.39 -79.31,14.47c-21.37,3.3 -41.87,6.1 -61.6,7.88c-42.68,3.78 -74.95,3.74 -104.51,0.03c-29.56,-3.71 -56.43,-11.1 -88.29,-22.08c-9.66,-3.34 -19.01,-6.68 -28.22,-9.97l-0.01,0c-11.97,-4.28 -23.7,-8.47 -35.55,-12.46c-2.63,-0.88 -5.24,-1.78 -7.84,-2.67c-31.5,-10.78 -60.92,-20.84 -103.31,-11.18c-69.56,15.84 -162.48,79.26 -291.28,252.37l0.96,0.47c128.79,-173.09 221.52,-236.22 290.62,-251.96c42.01,-9.57 71.09,0.38 102.6,11.16c2.59,0.88 5.19,1.78 7.82,2.66c11.85,3.99 23.55,8.17 35.51,12.44l0,0l0,0c9.21,3.29 18.57,6.63 28.26,9.98c31.91,10.99 58.87,18.42 88.56,22.15c29.68,3.73 62.06,3.75 104.8,-0.03c19.77,-1.78 40.3,-4.59 61.69,-7.89c26.35,-4.09 53.17,-9.34 79.36,-14.48l0,0c2.28,-0.45 4.55,-0.89 6.81,-1.33c24.08,-4.72 47.54,-9.23 69.55,-12.53c1.16,1.33 2.28,2.68 3.37,4.03c-18.89,3.73 -38.79,8.27 -59.19,12.93c-1.63,0.37 -3.27,0.74 -4.91,1.12l-2.35,0.53c-28.29,6.45 -57.43,12.95 -86.14,17.72l-0.01,0c-20.3,3.51 -40.81,6.17 -61.44,7.96c-42.79,3.37 -75.1,2.13 -104.53,-2.72c-29.44,-4.86 -56.02,-13.33 -87.37,-24.47c-2.46,-0.87 -4.9,-1.74 -7.33,-2.6c-19.24,-6.85 -37.66,-13.41 -56.73,-19.22c-1.07,-0.32 -2.14,-0.65 -3.2,-0.98l0,0l-0.01,0c-33.27,-10.18 -64.6,-19.76 -109.18,-8.35c-70.41,18 -163.27,82.81 -290.17,252.83l0.96,0.48c126.88,-170 219.55,-234.54 289.54,-252.43c44.21,-11.32 75.22,-1.83 108.5,8.35c1.06,0.32 2.11,0.64 3.16,0.96c19.05,5.8 37.44,12.35 56.68,19.2l0.04,0.01c2.41,0.86 4.85,1.73 7.29,2.59c31.36,11.15 58.04,19.65 87.6,24.53c29.56,4.87 61.98,6.11 104.86,2.74l0.01,0c20.67,-1.8 41.22,-4.47 61.56,-7.99c28.75,-4.76 57.92,-11.28 86.21,-17.72l7.26,-1.66c20.55,-4.69 40.56,-9.25 59.54,-12.99c1.11,1.41 2.18,2.84 3.22,4.28c-14.46,3.53 -29.48,7.49 -44.85,11.54c-6.21,1.63 -12.47,3.28 -18.78,4.92c-28.23,7.36 -57.35,14.59 -86.18,19.73l0,0c-20.2,3.72 -40.66,6.39 -61.27,7.96c-42.92,2.96 -75.26,0.51 -104.57,-5.48c-29.31,-6 -55.61,-15.55 -86.47,-26.84c-21.56,-7.91 -42.25,-15.21 -64.24,-21.23c-34.47,-9.41 -67.6,-17.9 -113.74,-4.82c-71.05,20.12 -163.99,86.38 -289.03,253.31l0.96,0.47c125.01,-166.89 217.78,-232.9 288.44,-252.91c45.76,-12.97 78.57,-4.58 113.01,4.82c19.03,5.21 37.09,11.38 55.62,18.09c-15.57,-5.54 -31.2,-10.49 -47.79,-14.52c-34.31,-8.32 -68.69,-14.65 -114.92,-0.29c-71.81,22.33 -164.86,89.93 -288.02,253.77l0.96,0.48c123.13,-163.81 216.01,-231.17 287.46,-253.39c45.89,-14.25 79.96,-7.99 114.2,0.31c18.32,4.45 35.49,10.04 52.71,16.29c-14.4,-5.02 -29.11,-9.37 -44.92,-12.71c-34.21,-7.27 -69.76,-11.43 -116.16,4.23c-72.66,24.49 -165.65,93.54 -286.94,254.23l0.96,0.48c121.26,-160.65 214.09,-229.49 286.4,-253.86c46.1,-15.55 81.37,-11.43 115.46,-4.2c20.45,4.34 39.05,10.35 57.58,17.34c-15.73,-5.67 -32,-10.39 -49.8,-13.68c-34.14,-6.26 -70.87,-8.22 -117.43,8.71c-73.4,26.63 -166.53,96.98 -285.87,254.65l0.96,0.48c119.31,-157.63 212.28,-227.77 285.37,-254.29c46.27,-16.83 82.74,-14.88 116.72,-8.66c17.76,3.29 33.99,8 49.71,13.67c-13.15,-4.36 -26.95,-7.89 -41.97,-10.19c-34.07,-5.21 -71.96,-4.95 -118.69,13.26c-74.13,28.88 -167.25,100.59 -284.8,255.16l0.96,0.49c117.51,-154.53 210.49,-226.06 284.32,-254.82c46.48,-18.12 84.12,-18.37 118,-13.19c19.03,2.92 36.09,7.81 52.39,13.89c-13.82,-4.69 -28.51,-8.33 -44.78,-10.34c-34,-4.21 -73.03,-1.69 -119.93,17.78c-74.78,31.15 -167.97,104.14 -283.64,255.62l0.95,0.48c115.64,-151.42 208.69,-224.25 283.2,-255.28c46.68,-19.38 85.48,-21.87 119.25,-17.69c19.12,2.36 36.06,6.99 51.98,12.93c-13.51,-4.49 -28.04,-7.84 -44.24,-9.38c-88.51,-8.43 -219.19,37.57 -403.86,278.37l0.95,0.49c184.64,-240.77 314.99,-286.31 402.78,-277.95c42.89,4.08 73.91,20.88 105.8,38.15l0.01,0c3.76,2.04 7.53,4.08 11.34,6.11c36.08,19.24 75.05,37.21 134.58,36.54c67.47,-0.76 134.88,-32.82 194.52,-63.05l1.08,-0.14c-0.03,-0.13 -0.05,-0.25 -0.08,-0.37c1.74,-0.88 3.47,-1.76 5.19,-2.63c0.39,-0.2 0.78,-0.4 1.16,-0.6c0.11,0.41 0.21,0.81 0.31,1.21l1.1,-0.18c-0.12,-0.51 -0.26,-1.03 -0.39,-1.54c1.55,-0.79 3.1,-1.58 4.64,-2.36l0,0c0.56,-0.29 1.12,-0.58 1.68,-0.86c0.25,0.78 0.49,1.57 0.71,2.36l1.1,-0.2c-0.26,-0.9 -0.53,-1.79 -0.81,-2.67c2.11,-1.07 4.2,-2.14 6.29,-3.2c0.46,1.18 0.88,2.37 1.27,3.57l1.09,-0.23c-0.42,-1.3 -0.88,-2.58 -1.38,-3.84c2.04,-1.03 4.06,-2.06 6.07,-3.07c0.69,1.51 1.33,3.05 1.92,4.61l1.07,-0.27c-0.61,-1.64 -1.28,-3.25 -2.02,-4.83c2.01,-1.02 4.02,-2.03 6.01,-3.02c0.99,1.82 1.89,3.69 2.71,5.6l1.06,-0.3c-0.84,-1.98 -1.78,-3.91 -2.81,-5.79c1.98,-0.98 3.95,-1.96 5.9,-2.92c1.33,2.08 2.54,4.24 3.61,6.47l1.05,-0.34c-1.1,-2.28 -2.33,-4.48 -3.7,-6.61c1.94,-0.95 3.87,-1.89 5.78,-2.82c1.72,2.3 3.27,4.7 4.64,7.22l1.02,-0.37c-1.38,-2.55 -2.95,-4.99 -4.69,-7.32c1.9,-0.92 3.8,-1.83 5.68,-2.72c2.14,2.45 4.06,5.05 5.76,7.81l1,-0.41c-1.7,-2.78 -3.63,-5.4 -5.78,-7.86c1.82,-0.86 3.64,-1.71 5.44,-2.54c2.65,2.56 5.02,5.35 7.09,8.36l0.98,-0.45c-2.08,-3.02 -4.44,-5.8 -7.07,-8.37c1.8,-0.83 3.6,-1.65 5.39,-2.44c3.18,2.61 6.04,5.52 8.53,8.73l0.95,-0.49c-2.48,-3.2 -5.31,-6.09 -8.46,-8.7c1.74,-0.77 3.46,-1.52 5.18,-2.25c3.76,2.58 7.13,5.54 10.07,8.91l0.92,-0.53c-2.91,-3.33 -6.23,-6.27 -9.92,-8.84c1.69,-0.72 3.36,-1.42 5.02,-2.1c4.4,2.49 8.33,5.46 11.76,8.95l0.88,-0.58c-3.38,-3.43 -7.22,-6.36 -11.5,-8.83c1.63,-0.66 3.24,-1.3 4.83,-1.92c5.07,2.32 9.61,5.22 13.57,8.79l0.83,-0.62c-3.86,-3.48 -8.26,-6.34 -13.15,-8.64c0.64,-0.25 1.28,-0.49 1.91,-0.72c0.92,-0.35 1.83,-0.68 2.74,-1.01c5.77,2.05 10.95,4.81 15.47,8.4l0.78,-0.66c-4.38,-3.47 -9.35,-6.19 -14.85,-8.24c1.42,-0.51 2.84,-0.99 4.24,-1.46c6.56,1.7 12.46,4.29 17.62,7.89l0.73,-0.7c-4.95,-3.46 -10.55,-5.99 -16.73,-7.72c1.33,-0.43 2.65,-0.85 3.95,-1.24c7.37,1.26 14.01,3.57 19.83,7.13l0.68,-0.73c-5.51,-3.37 -11.72,-5.64 -18.54,-6.98c1.1,-0.32 2.2,-0.63 3.29,-0.92c8.3,0.71 15.79,2.67 22.36,6.16l0.61,-0.77c-6.09,-3.23 -12.92,-5.18 -20.4,-6.06c0.98,-0.24 1.95,-0.48 2.92,-0.7c9.12,0.08 17.37,1.62 24.66,4.94l0.55,-0.8c-6.47,-2.95 -13.65,-4.52 -21.46,-4.94c0.52,-0.1 1.04,-0.2 1.56,-0.3c9.98,-0.64 19.05,0.38 27.11,3.5l0.48,-0.84c-6.26,-2.42 -13.1,-3.6 -20.45,-3.75c10.15,-1.18 19.45,-0.65 27.8,2.05l0.41,-0.86c-10.51,-3.4 -22.43,-3.42 -35.52,-1.01c-3.37,0.22 -6.83,0.63 -10.38,1.2c-3.39,0.16 -6.89,0.5 -10.48,1c-2.89,0.08 -5.85,0.27 -8.88,0.58c-3.53,-0.04 -7.18,0.09 -10.93,0.38c-3.23,-0.1 -6.56,-0.07 -9.98,0.07c-2.88,-0.18 -5.83,-0.26 -8.87,-0.26c-0.72,0 -1.44,0.01 -2.17,0.02c-1.47,-0.13 -2.97,-0.23 -4.49,-0.32c-1.83,-0.1 -3.7,-0.17 -5.59,-0.21c-0.37,-0.04 -0.73,-0.08 -1.11,-0.12c-3.04,-0.35 -6.18,-0.61 -9.39,-0.78c-3.39,-0.52 -6.89,-0.93 -10.5,-1.25c-3.45,-0.64 -7.01,-1.18 -10.67,-1.63c-3.09,-0.67 -6.27,-1.27 -9.52,-1.8c-3.97,-1.02 -8.08,-1.93 -12.31,-2.73c-3.13,-0.87 -6.34,-1.68 -9.62,-2.44c-3.49,-1.11 -7.09,-2.14 -10.77,-3.11c-3.37,-1.18 -6.82,-2.29 -10.36,-3.34c-3.41,-1.31 -6.92,-2.56 -10.5,-3.75c-3.47,-1.44 -7.02,-2.82 -10.65,-4.13c-3.58,-1.6 -7.24,-3.14 -10.99,-4.61c-2.95,-1.4 -5.95,-2.76 -9.01,-4.08c-4.14,-2.12 -8.39,-4.17 -12.74,-6.13c-5.15,-2.73 -10.46,-5.35 -15.9,-7.85c-51.58,-23.7 -114.95,-36.77 -169.33,-36.23c-59.38,0.59 -101.24,17.33 -138.9,32.39l-0.01,0c-2.11,0.84 -4.2,1.68 -6.29,2.51c-39.32,15.65 -74.74,28.29 -122.13,17.22c-7.77,-1.81 -14.89,-4.03 -21.46,-6.59c-5.74,-3.53 -11.16,-7.19 -16.45,-10.8c-3.42,-2.43 -6.74,-4.86 -10.02,-7.27l-1.31,-0.97l-0.02,-0.01l-0.09,-0.07c-0.51,-0.38 -1.02,-0.75 -1.53,-1.12c-1.45,-1.16 -2.88,-2.31 -4.31,-3.46c-0.94,-0.76 -1.88,-1.52 -2.81,-2.28l-0.02,-0.01c-3.04,-2.46 -6.04,-4.89 -9.04,-7.25c-4,-3.49 -7.94,-6.92 -11.92,-10.2c-3.49,-3.25 -6.95,-6.42 -10.48,-9.45c-2.78,-2.75 -5.57,-5.43 -8.4,-8.01c-0.82,-0.74 -1.64,-1.47 -2.46,-2.2c-15.1,-15.63 -31.03,-28.77 -55.59,-33.09zm809.05,134.25c-0.3,0.02 -0.6,0.03 -0.9,0.04c-0.51,0.08 -1.02,0.17 -1.53,0.26c0.34,0.02 0.67,0.05 1.01,0.07c0.47,-0.12 0.95,-0.25 1.42,-0.37zm-4.12,1.12c-0.72,-0.04 -1.46,-0.07 -2.2,-0.09c-0.79,0.17 -1.59,0.33 -2.39,0.51c0.7,0.1 1.38,0.2 2.07,0.32c0.84,-0.26 1.69,-0.5 2.52,-0.74zm-4.55,1.36c-0.88,-0.13 -1.77,-0.24 -2.67,-0.33c-1.14,0.26 -2.29,0.55 -3.44,0.85c0.88,0.18 1.75,0.39 2.6,0.6c1.18,-0.38 2.35,-0.76 3.51,-1.12zm-5.16,1.68c-0.98,-0.23 -1.97,-0.44 -2.98,-0.63c-1.27,0.35 -2.55,0.71 -3.84,1.08c0.97,0.29 1.93,0.6 2.88,0.93c1.32,-0.48 2.63,-0.94 3.94,-1.38zm-5.36,1.89c-1.03,-0.33 -2.07,-0.65 -3.13,-0.95c-1.44,0.43 -2.89,0.88 -4.35,1.35c1.03,0.4 2.05,0.82 3.04,1.26c0.89,-0.34 1.78,-0.67 2.65,-1c0.6,-0.22 1.19,-0.44 1.79,-0.66zm-5.7,2.15c-1.05,-0.45 -2.13,-0.88 -3.22,-1.28c-1.51,0.49 -3.03,1 -4.57,1.53c1.07,0.51 2.11,1.05 3.13,1.61c1.56,-0.64 3.12,-1.26 4.66,-1.86zm-5.82,2.33c-1.06,-0.57 -2.15,-1.12 -3.26,-1.64c-1.58,0.56 -3.17,1.13 -4.77,1.71c1.08,0.64 2.13,1.29 3.15,1.98c1.64,-0.7 3.27,-1.38 4.88,-2.05zm-5.96,2.51c-1.06,-0.69 -2.15,-1.36 -3.26,-2c-1.64,0.61 -3.29,1.23 -4.95,1.87c1.08,0.75 2.13,1.54 3.14,2.35c1.7,-0.76 3.39,-1.5 5.07,-2.22zm-6.1,2.68c-1.04,-0.82 -2.11,-1.62 -3.22,-2.38c-1.71,0.67 -3.44,1.35 -5.17,2.05c1.07,0.88 2.1,1.79 3.09,2.73c1.78,-0.82 3.55,-1.62 5.3,-2.4zm-6.3,2.86c-1.01,-0.95 -2.07,-1.87 -3.16,-2.76c-1.72,0.7 -3.46,1.41 -5.21,2.14c1.04,1.01 2.05,2.05 3.01,3.12c1.8,-0.85 3.59,-1.68 5.36,-2.5zm-6.34,2.96c-0.98,-1.08 -2,-2.13 -3.06,-3.15c-1.82,0.76 -3.64,1.53 -5.48,2.32c1.02,1.14 2,2.32 2.93,3.52c1.89,-0.91 3.76,-1.8 5.61,-2.69zm-6.58,3.16c-0.94,-1.22 -1.93,-2.4 -2.97,-3.55c-1.84,0.79 -3.69,1.6 -5.55,2.41c0.99,1.28 1.93,2.59 2.81,3.93c1.92,-0.94 3.82,-1.87 5.71,-2.79zm-6.67,3.26c-0.89,-1.35 -1.84,-2.67 -2.85,-3.96c-1.88,0.83 -3.77,1.67 -5.67,2.52c0.95,1.42 1.85,2.86 2.68,4.34c1.96,-0.98 3.91,-1.94 5.84,-2.9zm-6.8,3.38c-0.84,-1.49 -1.74,-2.95 -2.7,-4.37c-1.92,0.86 -3.85,1.72 -5.78,2.61c0.9,1.55 1.75,3.14 2.53,4.76c1.99,-1.01 3.98,-2.01 5.95,-3zm-6.93,3.49c-0.78,-1.64 -1.62,-3.24 -2.54,-4.81l-0.48,0.22c-1.77,0.81 -3.55,1.63 -5.34,2.45c0.85,1.7 1.64,3.42 2.35,5.18c2.02,-1.02 4.02,-2.04 6.01,-3.04zm-6.99,3.54c-0.71,-1.77 -1.5,-3.51 -2.36,-5.22c-2,0.92 -4.02,1.85 -6.04,2.78c0.8,1.85 1.52,3.72 2.16,5.61c2.09,-1.06 4.17,-2.12 6.24,-3.17zm-7.23,3.68c-0.65,-1.91 -1.37,-3.8 -2.16,-5.65c-2.02,0.93 -4.04,1.87 -6.08,2.81c0.74,1.99 1.39,4 1.96,6.04c1.43,-0.73 2.85,-1.45 4.27,-2.18l0.05,-0.02c0.65,-0.34 1.31,-0.67 1.96,-1zm-7.29,3.71c-0.56,-2.05 -1.21,-4.08 -1.95,-6.08c-1.17,0.55 -2.35,1.1 -3.53,1.65l-0.18,0.08l-0.02,0l-2.36,1.11c0.66,2.12 1.24,4.27 1.73,6.45c1.61,-0.82 3.21,-1.63 4.8,-2.44c0.51,-0.26 1.01,-0.51 1.51,-0.77zm-7.34,3.73c-0.48,-2.19 -1.05,-4.36 -1.72,-6.5c-2.09,0.97 -4.2,1.95 -6.31,2.93c0.59,2.27 1.09,4.56 1.49,6.88c2.19,-1.11 4.37,-2.21 6.54,-3.31zm-6.72,3.4l-0.92,0.1c-0.38,-2.22 -0.86,-4.42 -1.42,-6.59c-41.14,19.07 -85.9,39.06 -131.43,49.89c-19.73,4.83 -40.12,7.59 -60.7,8.21l-0.01,0c-61.86,1.29 -101.62,-16.15 -139.43,-34.98c0.34,0.19 0.69,0.37 1.04,0.56c3.76,2.04 7.54,4.08 11.34,6.11c36.02,19.21 74.77,37.06 133.96,36.39c64.74,-0.73 129.51,-30.45 187.57,-59.69zm-522.08,-69.27l0,0l0.27,-0.4l-0.27,0.4l0,0zm179.15,80.29c-2,-1.01 -4,-2.02 -6.01,-3.02c40.77,18.99 81.66,36.64 147.68,34.65l0.01,0c20.59,-0.8 41,-3.54 60.83,-8.17c47.01,-10.56 93.49,-30.11 135.92,-48.04c0.72,2.02 1.36,4.06 1.91,6.13c-41.22,19.11 -85.97,39.12 -131.5,49.95l0,0c-19.63,4.81 -39.94,7.56 -60.42,8.17c-66.84,1.39 -107.6,-19.13 -148.42,-39.67zm347.64,-21.85c-2.08,0.97 -4.17,1.95 -6.27,2.92c-0.56,-2.05 -1.2,-4.08 -1.92,-6.08l0.37,-0.16c1.12,-0.47 2.23,-0.94 3.34,-1.41c0.8,-0.34 1.59,-0.67 2.38,-1.01c0.78,1.9 1.48,3.81 2.1,5.74zm3.09,-1.43l-2.08,0.96c-0.63,-1.91 -1.33,-3.81 -2.09,-5.69c1.96,-0.83 3.92,-1.66 5.87,-2.48c0.83,1.76 1.58,3.55 2.27,5.36c-1.32,0.62 -2.64,1.23 -3.97,1.85zm8.07,-3.75c-1.03,0.48 -2.06,0.96 -3.1,1.43c-0.69,-1.79 -1.44,-3.56 -2.26,-5.31c1.96,-0.82 3.91,-1.64 5.86,-2.45c0.87,1.63 1.68,3.29 2.43,4.97c-0.97,0.45 -1.95,0.9 -2.93,1.36zm9.91,-4.59c-1.98,0.92 -3.98,1.84 -5.99,2.77c-0.74,-1.67 -1.55,-3.31 -2.42,-4.93c1.95,-0.82 3.9,-1.62 5.83,-2.42c0.92,1.5 1.78,3.03 2.58,4.58zm6.23,-2.85c-1.74,0.79 -3.49,1.59 -5.24,2.4c-0.8,-1.54 -1.66,-3.05 -2.57,-4.54c0.63,-0.26 1.26,-0.52 1.88,-0.77c1.25,-0.52 2.5,-1.03 3.74,-1.53c0.96,1.37 1.87,2.77 2.72,4.2l-0.53,0.24zm7.24,-3.28c-1.9,0.85 -3.8,1.72 -5.72,2.59c-0.85,-1.41 -1.75,-2.8 -2.7,-4.16c1.87,-0.76 3.73,-1.5 5.58,-2.24c0.99,1.24 1.94,2.52 2.84,3.81zm6.59,-2.93c-1.86,0.82 -3.73,1.65 -5.61,2.49c-0.89,-1.28 -1.82,-2.54 -2.8,-3.78c1.83,-0.72 3.66,-1.44 5.47,-2.15c1.02,1.12 2.01,2.27 2.94,3.44zm6.48,-2.83c-1.82,0.78 -3.64,1.58 -5.48,2.39c-0.93,-1.16 -1.9,-2.29 -2.9,-3.4c1.79,-0.7 3.58,-1.38 5.35,-2.05c1.05,1 2.06,2.01 3.03,3.06zm6.41,-2.72c-1.79,0.75 -3.59,1.51 -5.4,2.29c-0.95,-1.04 -1.95,-2.04 -2.98,-3.03c1.78,-0.66 3.54,-1.32 5.29,-1.95c1.06,0.87 2.09,1.76 3.09,2.69zm6.15,-2.54c-1.69,0.69 -3.4,1.39 -5.12,2.1c-0.97,-0.91 -1.98,-1.79 -3.02,-2.65c1.68,-0.61 3.34,-1.21 5,-1.78c1.08,0.75 2.13,1.53 3.14,2.33zm6.13,-2.44c-1.67,0.65 -3.36,1.32 -5.06,2c-0.99,-0.79 -2.01,-1.55 -3.06,-2.3c1.67,-0.57 3.32,-1.13 4.96,-1.68c1.08,0.64 2.14,1.3 3.16,1.98zm5.94,-2.27c-1.59,0.6 -3.2,1.21 -4.81,1.83c-1,-0.67 -2.02,-1.32 -3.06,-1.94c1.58,-0.52 3.15,-1.03 4.71,-1.51c1.08,0.52 2.13,1.06 3.16,1.62zm5.8,-2.1c-1.52,0.54 -3.06,1.09 -4.6,1.66c-0.99,-0.55 -1.99,-1.09 -3.02,-1.6c1.52,-0.47 3.02,-0.92 4.51,-1.35c1.06,0.41 2.1,0.84 3.11,1.29zm5.65,-1.93c-1.43,0.47 -2.88,0.97 -4.34,1.47c-0.95,-0.44 -1.93,-0.86 -2.92,-1.26c1.43,-0.41 2.85,-0.8 4.25,-1.17c1.02,0.3 2.03,0.62 3.01,0.96zm5.51,-1.75c-1.34,0.41 -2.68,0.83 -4.04,1.27c-0.9,-0.33 -1.82,-0.64 -2.75,-0.93c1.34,-0.35 2.67,-0.68 3.98,-0.99c0.95,0.2 1.89,0.42 2.81,0.65zm5.09,-1.49c-1.12,0.31 -2.24,0.64 -3.38,0.97c-0.8,-0.22 -1.61,-0.42 -2.43,-0.61c0.52,-0.12 1.05,-0.24 1.57,-0.35c0.59,-0.13 1.17,-0.26 1.76,-0.38c0.84,0.11 1.66,0.23 2.48,0.37zm4.76,-1.27c-0.88,0.22 -1.77,0.45 -2.66,0.69c-0.62,-0.11 -1.25,-0.22 -1.88,-0.33c0.9,-0.17 1.79,-0.33 2.68,-0.48c0.63,0.03 1.25,0.07 1.86,0.12zm3.57,-0.87c-0.27,0.06 -0.54,0.13 -0.8,0.19c-0.23,-0.02 -0.46,-0.05 -0.69,-0.07c0.24,-0.03 0.47,-0.07 0.7,-0.1c0.27,-0.01 0.53,-0.01 0.79,-0.02zm-10.21,0.66l-0.28,0.03c-0.27,0.03 -0.55,0.06 -0.82,0.09c0.15,0.02 0.3,0.04 0.45,0.06c0.18,-0.04 0.36,-0.08 0.55,-0.12c0.18,-0.03 0.36,-0.07 0.55,-0.11c-0.15,0.02 -0.3,0.03 -0.45,0.05zm-3.48,0.78c-0.54,-0.05 -1.09,-0.1 -1.64,-0.15c-0.88,0.12 -1.75,0.26 -2.64,0.4c0.58,0.1 1.16,0.22 1.73,0.34c0.85,-0.21 1.7,-0.4 2.55,-0.59zm-4.7,1.11c-0.78,-0.15 -1.56,-0.28 -2.35,-0.41c-1.17,0.21 -2.35,0.42 -3.55,0.65c0.8,0.21 1.59,0.43 2.37,0.66c1.19,-0.32 2.36,-0.62 3.53,-0.9zm-5.29,1.37c-0.91,-0.25 -1.82,-0.48 -2.75,-0.7c-1.29,0.26 -2.6,0.54 -3.91,0.83c0.92,0.31 1.82,0.64 2.71,0.98c1.33,-0.39 2.64,-0.75 3.95,-1.11zm-5.46,1.55c-0.98,-0.35 -1.97,-0.69 -2.98,-1.02c-1.39,0.33 -2.8,0.66 -4.22,1.01c0.98,0.42 1.95,0.86 2.91,1.31c1.44,-0.45 2.87,-0.88 4.29,-1.3zm-5.65,1.73c-1.01,-0.47 -2.05,-0.92 -3.1,-1.35c-1.48,0.37 -2.96,0.76 -4.46,1.17c1.02,0.53 2.03,1.08 3.02,1.64c1.52,-0.5 3.04,-0.99 4.54,-1.46zm-5.78,1.88c-1.04,-0.58 -2.09,-1.14 -3.17,-1.69c-1.57,0.43 -3.14,0.88 -4.73,1.34c1.05,0.64 2.07,1.31 3.08,1.99c1.61,-0.56 3.22,-1.11 4.82,-1.64zm-5.99,2.05c-1.04,-0.7 -2.1,-1.38 -3.19,-2.03c-1.58,0.46 -3.17,0.94 -4.78,1.43c1.06,0.76 2.09,1.54 3.08,2.34c1.64,-0.59 3.27,-1.18 4.89,-1.74zm-5.99,2.14c-1.03,-0.81 -2.09,-1.6 -3.18,-2.37c-1.68,0.52 -3.38,1.05 -5.09,1.6c1.06,0.88 2.08,1.78 3.08,2.7c1.74,-0.66 3.47,-1.3 5.19,-1.93zm-6.26,2.33c-1.02,-0.93 -2.07,-1.84 -3.15,-2.73c-1.71,0.55 -3.43,1.11 -5.16,1.69c1.05,1 2.06,2.02 3.03,3.06c1.77,-0.68 3.53,-1.36 5.28,-2.02zm-6.32,2.43c-0.99,-1.06 -2.02,-2.09 -3.09,-3.1c-1.75,0.59 -3.51,1.19 -5.28,1.8c1.03,1.12 2.02,2.26 2.97,3.42c1.81,-0.72 3.62,-1.43 5.4,-2.12zm-6.42,2.53c-0.96,-1.18 -1.97,-2.33 -3.02,-3.46c-1.79,0.61 -3.58,1.24 -5.39,1.88c1.01,1.24 1.98,2.51 2.9,3.79c1.85,-0.74 3.68,-1.48 5.51,-2.21zm-6.52,2.62c-0.93,-1.3 -1.91,-2.57 -2.94,-3.83c-1.8,0.64 -3.61,1.29 -5.43,1.95c0.98,1.37 1.92,2.75 2.8,4.16c0.33,-0.13 0.65,-0.27 0.97,-0.4c0.31,-0.12 0.61,-0.25 0.92,-0.37c0.36,-0.15 0.72,-0.3 1.08,-0.45c0.87,-0.35 1.73,-0.71 2.6,-1.06zm-6.57,2.69c-0.9,-1.42 -1.84,-2.82 -2.84,-4.19l-0.3,0.11c-1.77,0.64 -3.54,1.29 -5.33,1.95c0.95,1.49 1.85,2.99 2.7,4.53c1.93,-0.81 3.85,-1.61 5.77,-2.4zm-6.78,2.82c-0.85,-1.55 -1.75,-3.07 -2.71,-4.58c-1.88,0.7 -3.77,1.4 -5.67,2.11c0.91,1.61 1.77,3.25 2.57,4.9c1.95,-0.82 3.88,-1.63 5.81,-2.43zm-6.82,2.85c-0.8,-1.67 -1.67,-3.31 -2.59,-4.94c-1.88,0.71 -3.77,1.42 -5.68,2.13c0.88,1.74 1.69,3.49 2.44,5.27c1.95,-0.83 3.9,-1.65 5.83,-2.46zm-6.84,2.88c-0.75,-1.78 -1.57,-3.55 -2.45,-5.3c-1.95,0.74 -3.92,1.48 -5.89,2.23c0.83,1.86 1.59,3.73 2.29,5.63l0,0c2.03,-0.86 4.04,-1.71 6.05,-2.56zm-7.07,2.99c-0.69,-1.91 -1.46,-3.8 -2.29,-5.68c-2.97,1.13 -5.95,2.26 -8.95,3.41l-0.01,0c-41.19,15.66 -86.03,32.72 -131.05,42.3c-19.94,4.4 -40.37,7.12 -60.98,8.12l-0.01,0c-69.19,2.77 -110.85,-14.21 -154.36,-33.06c2.85,1.32 5.68,2.64 8.51,3.96c42.67,19.94 83.92,39.21 152.66,37.14c20.51,-0.79 40.83,-3.52 60.57,-8.13l0.01,0c46.97,-10.56 93.41,-30.11 135.9,-48.06zm-361.63,12.32c-6.32,-2.75 -12.71,-5.52 -19.25,-8.27c1.45,0.59 2.89,1.17 4.33,1.75l0,0c48.67,19.7 91.39,37 166.41,33.3l0.01,0c20.63,-1.19 41.08,-3.89 61.12,-8.07c42.2,-8.49 84.5,-22.87 123.74,-36.2c6.74,-2.29 13.38,-4.55 19.92,-6.74c0.95,1.77 1.84,3.56 2.67,5.37c-3.01,1.14 -6.03,2.29 -9.08,3.45l-0.03,0.01c-41.17,15.66 -85.89,32.67 -130.8,42.22l0,0c-19.86,4.38 -40.22,7.09 -60.75,8.09c-71.28,2.86 -113.11,-15.3 -158.29,-34.91l0,0zm365.82,-21.46c-1.94,0.73 -3.89,1.47 -5.85,2.21c-0.82,-1.79 -1.7,-3.57 -2.65,-5.33c1.91,-0.64 3.82,-1.28 5.71,-1.9c0.98,1.65 1.92,3.33 2.79,5.02zm6.66,-2.5c-1.87,0.7 -3.75,1.4 -5.64,2.11c-0.87,-1.68 -1.79,-3.34 -2.77,-4.98c1.84,-0.61 3.67,-1.21 5.49,-1.81c1.03,1.54 2,3.1 2.92,4.68zm6.64,-2.47c-1.86,0.69 -3.74,1.39 -5.62,2.09c-0.91,-1.57 -1.87,-3.11 -2.89,-4.64c1.84,-0.6 3.67,-1.19 5.49,-1.77c1.05,1.42 2.06,2.86 3.02,4.32zm6.42,-2.35c-1.79,0.65 -3.58,1.31 -5.39,1.97c-0.95,-1.45 -1.95,-2.87 -2.99,-4.28c0.74,-0.24 1.49,-0.48 2.23,-0.71c1.07,-0.34 2.14,-0.68 3.2,-1.01c1.09,1.3 2.14,2.62 3.13,3.96l-0.18,0.07zm6.59,-2.37c-1.78,0.63 -3.57,1.28 -5.37,1.93c-0.98,-1.33 -2.01,-2.64 -3.08,-3.93c1.75,-0.55 3.5,-1.08 5.24,-1.61c1.11,1.18 2.18,2.38 3.21,3.61zm6.37,-2.24c-1.76,0.61 -3.53,1.24 -5.32,1.87c-1.01,-1.21 -2.07,-2.41 -3.16,-3.58c1.74,-0.53 3.47,-1.04 5.19,-1.55c1.13,1.07 2.23,2.15 3.29,3.26zm6.27,-2.14c-1.72,0.58 -3.45,1.17 -5.2,1.77c-1.04,-1.09 -2.11,-2.17 -3.23,-3.22c1.71,-0.5 3.4,-0.98 5.08,-1.46c1.16,0.95 2.27,1.92 3.35,2.91zm6.18,-2.04c-1.68,0.55 -3.37,1.1 -5.07,1.67c-1.06,-0.98 -2.15,-1.93 -3.28,-2.87c1.66,-0.46 3.31,-0.91 4.95,-1.35c1.16,0.83 2.3,1.68 3.4,2.55zm6.13,-1.94c-1.65,0.51 -3.32,1.03 -4.99,1.57c-1.07,-0.86 -2.17,-1.7 -3.3,-2.51c1.64,-0.44 3.27,-0.86 4.88,-1.27c1.17,0.71 2.3,1.45 3.41,2.21zm5.84,-1.77c-1.53,0.45 -3.08,0.92 -4.64,1.4c-1.06,-0.75 -2.16,-1.47 -3.28,-2.17c1.51,-0.38 3.02,-0.74 4.51,-1.1c1.16,0.6 2.3,1.23 3.41,1.87zm5.85,-1.67c-1.51,0.41 -3.03,0.85 -4.56,1.29c-1.06,-0.63 -2.15,-1.24 -3.26,-1.82c1.5,-0.35 2.98,-0.68 4.45,-1c1.15,0.49 2.27,1 3.37,1.53zm5.65,-1.52c-1.41,0.37 -2.82,0.74 -4.24,1.13c-1.04,-0.51 -2.09,-1.01 -3.17,-1.48c1.39,-0.29 2.76,-0.57 4.13,-0.84c1.11,0.38 2.2,0.78 3.28,1.19zm5.48,-1.35c-1.29,0.31 -2.6,0.62 -3.91,0.95c-0.99,-0.39 -1.99,-0.77 -3,-1.14c1.27,-0.23 2.54,-0.46 3.8,-0.67c1.05,0.27 2.09,0.56 3.11,0.86zm5.25,-1.18c-1.13,0.24 -2.28,0.49 -3.43,0.76c-0.89,-0.28 -1.79,-0.55 -2.7,-0.81c1.11,-0.18 2.22,-0.34 3.32,-0.5c0.95,0.17 1.89,0.35 2.81,0.55zm4.99,-1c-0.92,0.17 -1.84,0.35 -2.77,0.54c-0.71,-0.17 -1.43,-0.32 -2.15,-0.48c0.84,-0.1 1.67,-0.2 2.5,-0.29l0.23,-0.03c0.74,0.08 1.47,0.17 2.19,0.26zm3.96,-0.7c-0.36,0.06 -0.71,0.12 -1.07,0.18c-0.3,-0.05 -0.61,-0.1 -0.91,-0.14c0.33,-0.03 0.65,-0.06 0.98,-0.08l0.27,0.01c0.15,0 0.29,0.01 0.44,0.01c0.09,0.01 0.19,0.01 0.29,0.02zm-10.6,0.06c-0.14,-0.01 -0.28,-0.02 -0.42,-0.03c-0.46,0.02 -0.92,0.04 -1.38,0.07c0.23,0.04 0.45,0.08 0.67,0.12c0.38,-0.06 0.75,-0.11 1.13,-0.16zm-4.13,0.6c-0.65,-0.1 -1.31,-0.19 -1.97,-0.28c-0.83,0.07 -1.66,0.14 -2.5,0.21c0.66,0.16 1.3,0.32 1.95,0.48c0.84,-0.14 1.69,-0.28 2.52,-0.41zm-4.81,0.81c-0.87,-0.21 -1.74,-0.4 -2.63,-0.58c-1.07,0.12 -2.16,0.24 -3.25,0.37c0.86,0.27 1.71,0.54 2.55,0.82c1.12,-0.21 2.22,-0.42 3.33,-0.61zm-5.22,0.98c-0.97,-0.31 -1.96,-0.6 -2.97,-0.89c-1.23,0.17 -2.47,0.34 -3.72,0.53c0.98,0.37 1.94,0.76 2.89,1.15c1.27,-0.27 2.54,-0.53 3.8,-0.79zm-5.44,1.15c-1.04,-0.42 -2.1,-0.83 -3.17,-1.22c-1.37,0.22 -2.74,0.44 -4.13,0.68c1.05,0.48 2.08,0.98 3.09,1.5c1.41,-0.33 2.82,-0.65 4.21,-0.96zm-5.68,1.3c-1.07,-0.53 -2.17,-1.05 -3.29,-1.55c-1.4,0.25 -2.8,0.51 -4.22,0.78c1.08,0.6 2.14,1.21 3.18,1.84c1.45,-0.37 2.9,-0.72 4.33,-1.07zm-5.67,1.4c-1.09,-0.64 -2.2,-1.27 -3.34,-1.88c-1.54,0.3 -3.09,0.62 -4.65,0.94c1.11,0.71 2.19,1.44 3.25,2.18c1.59,-0.42 3.17,-0.84 4.74,-1.24zm-6,1.58c-1.09,-0.76 -2.22,-1.5 -3.37,-2.22c-1.57,0.33 -3.14,0.67 -4.73,1.03c1.12,0.82 2.21,1.66 3.27,2.52c1.62,-0.46 3.23,-0.9 4.83,-1.33zm-6.02,1.66c-1.09,-0.87 -2.21,-1.72 -3.37,-2.56c-1.61,0.37 -3.23,0.75 -4.87,1.14c1.12,0.93 2.2,1.89 3.26,2.86c1.67,-0.49 3.33,-0.97 4.98,-1.44zm-6.12,1.77c-1.08,-0.98 -2.2,-1.95 -3.35,-2.9c-1.65,0.4 -3.31,0.81 -4.99,1.23c1.11,1.05 2.19,2.12 3.23,3.2c1.71,-0.52 3.41,-1.03 5.11,-1.53zm-6.22,1.87c-1.06,-1.1 -2.16,-2.18 -3.3,-3.25c-1.67,0.42 -3.36,0.86 -5.05,1.3c1.1,1.16 2.16,2.34 3.18,3.54c1.73,-0.54 3.46,-1.07 5.17,-1.59zm-6.25,1.93c-1.04,-1.21 -2.12,-2.41 -3.24,-3.58c-1.74,0.45 -3.49,0.92 -5.25,1.39c1.08,1.28 2.12,2.58 3.11,3.89c0.81,-0.26 1.62,-0.51 2.42,-0.77c0.99,-0.31 1.98,-0.62 2.96,-0.93zm-6.44,2.04c-1.01,-1.32 -2.07,-2.63 -3.17,-3.92c-1.76,0.47 -3.52,0.96 -5.3,1.45c1.05,1.39 2.07,2.8 3.04,4.23c1.82,-0.59 3.63,-1.18 5.43,-1.76zm-6.49,2.1c-0.98,-1.44 -2.01,-2.86 -3.08,-4.26c-1.76,0.49 -3.53,0.99 -5.31,1.49c1.03,1.5 2.02,3.03 2.95,4.56c1.83,-0.6 3.64,-1.2 5.44,-1.79zm-6.48,2.14c-0.95,-1.55 -1.94,-3.09 -2.99,-4.6c-1.83,0.52 -3.68,1.05 -5.53,1.58c1.01,1.62 1.96,3.26 2.86,4.91c1.89,-0.64 3.78,-1.27 5.66,-1.89zm-6.7,2.23c-0.91,-1.66 -1.87,-3.3 -2.89,-4.94c-10.35,3.01 -20.98,6.2 -31.82,9.46l0,0c-36.88,11.1 -76.21,22.92 -115.2,30.31c-20.14,3.96 -40.62,6.64 -61.27,8.03l0,0c-79.19,4.67 -122.5,-11.51 -175.8,-31.84c5.7,2.25 11.26,4.5 16.74,6.72l0.01,0.01c48.65,19.69 91.11,36.88 165.82,33.19c20.57,-1.18 40.96,-3.88 60.93,-8.05l0,0c42.11,-8.46 84.29,-22.8 123.5,-36.13l0.01,0c6.75,-2.29 13.41,-4.56 19.97,-6.76zm-401.52,4.48c-1.31,-0.5 -2.61,-0.99 -3.92,-1.47c29.06,10.61 54.36,19.61 82.44,25.35c29.44,6.02 61.9,8.47 104.93,5.51l0.01,0c20.66,-1.58 41.17,-4.25 61.41,-7.99c28.88,-5.14 58.05,-12.38 86.28,-19.74c6.32,-1.65 12.59,-3.3 18.79,-4.93c15.47,-4.08 30.56,-8.06 45.08,-11.6c1.08,1.53 2.11,3.07 3.1,4.63c-10.35,3 -20.97,6.19 -31.79,9.45l0,0c-36.85,11.08 -76.05,22.87 -114.98,30.24l0,0c-20.08,3.96 -40.51,6.63 -61.1,8.01c-79.66,4.7 -122.8,-11.75 -176.81,-32.36c-4.4,-1.67 -8.87,-3.38 -13.44,-5.1zm404.67,-12.12c-1.82,0.51 -3.65,1.04 -5.48,1.57c-0.98,-1.54 -2,-3.07 -3.06,-4.59c1.79,-0.43 3.58,-0.86 5.36,-1.29c1.1,1.42 2.16,2.86 3.18,4.31zm6.34,-1.79c-1.75,0.48 -3.5,0.98 -5.26,1.48c-1,-1.44 -2.05,-2.86 -3.14,-4.26c1.72,-0.41 3.43,-0.81 5.14,-1.2c1.12,1.31 2.21,2.64 3.26,3.98zm6.34,-1.75c-1.74,0.47 -3.49,0.95 -5.25,1.44c-1.03,-1.33 -2.1,-2.64 -3.21,-3.93c0.38,-0.09 0.75,-0.17 1.12,-0.25l1.91,-0.44c0.71,-0.16 1.41,-0.31 2.11,-0.47c1.14,1.2 2.25,2.42 3.32,3.65zm6.3,-1.68c-1.72,0.45 -3.45,0.91 -5.18,1.38c-1.05,-1.22 -2.14,-2.42 -3.26,-3.61c1.69,-0.37 3.38,-0.73 5.06,-1.09c1.16,1.09 2.29,2.2 3.38,3.32zm6.12,-1.58c-1.65,0.42 -3.31,0.84 -4.98,1.28c-1.07,-1.11 -2.17,-2.2 -3.3,-3.27c1.63,-0.34 3.25,-0.67 4.86,-1c1.17,0.98 2.31,1.98 3.42,2.99zm6.08,-1.51c-1.62,0.4 -3.26,0.8 -4.9,1.21c-1.08,-1 -2.19,-1.97 -3.33,-2.94c1.6,-0.31 3.2,-0.62 4.79,-0.92c1.17,0.87 2.32,1.75 3.44,2.65zm5.99,-1.41c-1.57,0.36 -3.16,0.73 -4.76,1.12c-1.08,-0.89 -2.2,-1.76 -3.34,-2.61c1.57,-0.29 3.12,-0.56 4.66,-0.83c1.17,0.76 2.32,1.53 3.44,2.32zm5.89,-1.31c-1.52,0.33 -3.05,0.66 -4.59,1.01c-1.08,-0.77 -2.18,-1.52 -3.31,-2.26c1.5,-0.26 2.99,-0.5 4.47,-0.73c1.17,0.64 2.31,1.3 3.43,1.98zm5.87,-1.22c-1.49,0.3 -2.98,0.61 -4.48,0.92c-1.07,-0.65 -2.15,-1.3 -3.26,-1.93c1.47,-0.22 2.94,-0.43 4.39,-0.64c1.14,0.54 2.25,1.09 3.35,1.65zm5.5,-1.04c-1.32,0.24 -2.65,0.49 -3.99,0.75c-1.02,-0.55 -2.06,-1.08 -3.13,-1.59c1.3,-0.17 2.58,-0.34 3.86,-0.49c1.1,0.43 2.19,0.87 3.26,1.33zm5.49,-0.95c-1.25,0.2 -2.52,0.42 -3.8,0.64c-0.97,-0.43 -1.95,-0.84 -2.95,-1.25c1.24,-0.14 2.47,-0.27 3.7,-0.39c1.03,0.32 2.05,0.65 3.05,1zm5.2,-0.8c-1.07,0.16 -2.15,0.32 -3.24,0.48c-0.86,-0.31 -1.74,-0.61 -2.62,-0.9c1.05,-0.09 2.1,-0.17 3.13,-0.25c0.92,0.22 1.83,0.44 2.73,0.67zm4.81,-0.63c-0.81,0.1 -1.62,0.2 -2.44,0.31c-0.67,-0.19 -1.34,-0.37 -2.02,-0.55c0.78,-0.04 1.57,-0.08 2.34,-0.12c0.72,0.11 1.42,0.23 2.12,0.36zm3.94,-0.44c-0.28,0.03 -0.57,0.06 -0.85,0.09c-0.25,-0.05 -0.51,-0.11 -0.76,-0.16l0.33,0c0.14,-0.01 0.29,-0.01 0.43,-0.01c0.29,0.03 0.57,0.05 0.85,0.08zm-10.69,-0.58l-0.28,-0.03l-0.2,0c-0.12,-0.01 -0.24,-0.01 -0.36,-0.01l-0.26,0l0.21,0.04l0.21,0.05c0.23,-0.01 0.45,-0.03 0.68,-0.05zm-3.87,0.31c-0.6,-0.13 -1.21,-0.25 -1.82,-0.37c-0.75,0.01 -1.52,0.02 -2.29,0.04c0.61,0.17 1.21,0.35 1.8,0.53c0.78,-0.07 1.54,-0.14 2.31,-0.2zm-4.76,0.45c-0.84,-0.23 -1.68,-0.47 -2.53,-0.69c-1.04,0.04 -2.09,0.08 -3.15,0.14c0.84,0.29 1.66,0.6 2.48,0.91c1.07,-0.12 2.14,-0.24 3.2,-0.36zm-5.24,0.61c-0.96,-0.35 -1.93,-0.69 -2.92,-1.03c-1.13,0.07 -2.27,0.15 -3.41,0.23c0.95,0.41 1.89,0.83 2.81,1.26c1.18,-0.16 2.36,-0.31 3.52,-0.46zm-5.28,0.71c-1.02,-0.46 -2.06,-0.91 -3.12,-1.35c-1.35,0.11 -2.72,0.23 -4.09,0.36c1.03,0.52 2.05,1.06 3.06,1.61c1.39,-0.21 2.78,-0.42 4.15,-0.62zm-5.73,0.87c-1.07,-0.57 -2.17,-1.14 -3.28,-1.69c-1.39,0.14 -2.79,0.29 -4.2,0.45c1.08,0.64 2.14,1.29 3.19,1.95c1.44,-0.24 2.87,-0.48 4.29,-0.71zm-5.74,0.96c-1.1,-0.68 -2.22,-1.35 -3.36,-2.01c-1.46,0.17 -2.93,0.35 -4.41,0.54c1.11,0.75 2.2,1.51 3.26,2.29c1.52,-0.28 3.02,-0.55 4.51,-0.82zm-5.85,1.07c-1.11,-0.79 -2.25,-1.58 -3.41,-2.34c-1.51,0.2 -3.04,0.41 -4.57,0.63c1.13,0.86 2.23,1.73 3.3,2.62c1.57,-0.31 3.13,-0.61 4.68,-0.91zm-5.95,1.16c-1.12,-0.9 -2.25,-1.79 -3.42,-2.67c-1.54,0.23 -3.1,0.46 -4.66,0.71c1.13,0.97 2.23,1.95 3.31,2.94c1.6,-0.33 3.19,-0.66 4.77,-0.98zm-5.99,1.24c-1.11,-1.01 -2.24,-2.01 -3.41,-2.99c-1.61,0.25 -3.24,0.52 -4.87,0.8c1.13,1.07 2.23,2.16 3.3,3.27c1.66,-0.37 3.33,-0.73 4.98,-1.08zm-6.17,1.34c-1.09,-1.12 -2.22,-2.23 -3.37,-3.32c-1.51,0.26 -3.02,0.52 -4.54,0.79l-0.43,0.07c1.13,1.19 2.22,2.39 3.28,3.6c1.14,-0.26 2.28,-0.52 3.42,-0.77c0.54,-0.13 1.09,-0.25 1.64,-0.37zm-9.55,-2.24c-1.65,0.3 -3.3,0.61 -4.96,0.92c1.11,1.29 2.18,2.59 3.22,3.91c1.7,-0.4 3.39,-0.8 5.07,-1.18c-1.07,-1.23 -2.19,-2.45 -3.33,-3.65zm-2.86,5.1c-1.06,-1.33 -2.16,-2.65 -3.29,-3.96c-1.72,0.33 -3.45,0.66 -5.2,1c1.1,1.4 2.16,2.81 3.18,4.23c1.78,-0.43 3.54,-0.85 5.31,-1.27zm-3.99,-4.77c-1.71,0.32 -3.42,0.66 -5.14,0.99c-1.07,-1.34 -2.18,-2.67 -3.31,-3.98c1.69,-0.25 3.36,-0.49 5.04,-0.73c1.17,1.23 2.3,2.47 3.41,3.72zm6.07,-1.13c-1.62,0.3 -3.25,0.6 -4.89,0.91c-1.08,-1.24 -2.19,-2.46 -3.34,-3.67c1.35,-0.19 2.7,-0.37 4.04,-0.55c0.25,-0.03 0.49,-0.06 0.74,-0.1c1.18,1.13 2.33,2.26 3.45,3.41zm2.18,-0.39l-0.96,0.17c-1.09,-1.13 -2.22,-2.25 -3.37,-3.36c1.6,-0.2 3.2,-0.4 4.78,-0.59c1.19,1.02 2.35,2.05 3.48,3.1c-1.31,0.22 -2.62,0.45 -3.93,0.68zm9.97,-1.69c-1.58,0.26 -3.18,0.52 -4.78,0.79c-1.1,-1.03 -2.22,-2.04 -3.38,-3.04c1.57,-0.18 3.13,-0.36 4.67,-0.52c1.19,0.91 2.36,1.83 3.49,2.77zm5.87,-0.91c-1.51,0.23 -3.02,0.46 -4.55,0.7c-1.09,-0.92 -2.22,-1.82 -3.37,-2.71c1.49,-0.16 2.97,-0.3 4.45,-0.44c1.18,0.8 2.34,1.62 3.47,2.45zm5.83,-0.82c-1.47,0.19 -2.94,0.4 -4.43,0.62c-1.09,-0.81 -2.2,-1.61 -3.33,-2.39c1.45,-0.13 2.89,-0.26 4.32,-0.37c1.17,0.7 2.31,1.41 3.44,2.14zm5.73,-0.74c-1.4,0.17 -2.81,0.35 -4.23,0.53c-1.07,-0.69 -2.15,-1.38 -3.26,-2.06c1.39,-0.1 2.76,-0.19 4.13,-0.27c1.14,0.58 2.26,1.19 3.36,1.8zm5.59,-0.63c-1.31,0.14 -2.63,0.28 -3.96,0.44c-1.02,-0.59 -2.06,-1.16 -3.12,-1.72c1.29,-0.08 2.58,-0.14 3.85,-0.19c1.09,0.48 2.17,0.97 3.23,1.47zm5.58,-0.54c-1.24,0.11 -2.49,0.23 -3.76,0.35c-0.95,-0.46 -1.92,-0.92 -2.9,-1.37c1.24,-0.04 2.48,-0.08 3.7,-0.1c1,0.36 1.99,0.74 2.96,1.12zm5.01,-0.39c-0.96,0.07 -1.93,0.14 -2.9,0.22c-0.83,-0.34 -1.66,-0.67 -2.5,-1c0.93,-0.01 1.86,-0.01 2.77,-0.01c0.89,0.25 1.76,0.52 2.63,0.79zm4.85,-0.28c-0.77,0.03 -1.54,0.08 -2.31,0.12c-0.62,-0.21 -1.24,-0.41 -1.87,-0.61c0.76,0.01 1.51,0.03 2.26,0.05c0.43,0.09 0.87,0.19 1.3,0.29l0.2,0.05l0.2,0.04l0.22,0.06zm3.89,-0.16c-0.2,0 -0.4,0.01 -0.6,0.02c-0.15,-0.04 -0.3,-0.08 -0.45,-0.12l0.17,0.01l0.17,0l0.29,0.02l0.29,0.05l0.13,0.02zm-10.65,-1.27l-0.31,-0.06c-0.19,-0.01 -0.39,-0.03 -0.58,-0.05l0.17,0.05l0.2,0.06c0.17,0 0.34,0 0.52,0zm-3.93,0.02c-0.62,-0.17 -1.25,-0.33 -1.88,-0.49c-0.58,-0.03 -1.17,-0.07 -1.76,-0.1c0.58,0.21 1.16,0.41 1.74,0.62c0.63,-0.01 1.27,-0.02 1.9,-0.03zm-4.53,0.1c-0.83,-0.29 -1.67,-0.57 -2.52,-0.84c-1.05,-0.04 -2.1,-0.08 -3.17,-0.1c0.84,0.34 1.67,0.7 2.5,1.05c1.07,-0.04 2.13,-0.08 3.19,-0.11zm-5.38,0.21c-0.98,-0.41 -1.97,-0.81 -2.98,-1.21c-1.13,-0.01 -2.26,-0.02 -3.4,-0.03c0.97,0.47 1.93,0.95 2.88,1.44c1.17,-0.07 2.34,-0.14 3.5,-0.2zm-5.4,0.32c-1.05,-0.53 -2.13,-1.05 -3.21,-1.55c-1.25,0 -2.51,0.01 -3.78,0.04c1.05,0.58 2.09,1.18 3.11,1.79c1.3,-0.1 2.6,-0.2 3.88,-0.28zm-5.58,0.41c-1.1,-0.64 -2.22,-1.27 -3.36,-1.89c-1.33,0.04 -2.68,0.07 -4.03,0.12c1.1,0.7 2.19,1.41 3.25,2.13c1.39,-0.13 2.77,-0.25 4.14,-0.36zm-5.69,0.51c-1.13,-0.75 -2.28,-1.49 -3.44,-2.21c-1.39,0.05 -2.79,0.11 -4.2,0.18c1.14,0.81 2.25,1.63 3.34,2.46c1.44,-0.15 2.88,-0.3 4.3,-0.43zm-5.75,0.59c-1.14,-0.86 -2.3,-1.7 -3.49,-2.53c-1.47,0.08 -2.95,0.17 -4.45,0.26c1.16,0.92 2.29,1.84 3.39,2.78c1.53,-0.18 3.05,-0.35 4.55,-0.51zm-5.92,0.68c-1.14,-0.96 -2.31,-1.91 -3.51,-2.85c-1.52,0.1 -3.04,0.21 -4.58,0.33c1.16,1.03 2.3,2.06 3.41,3.11c1.57,-0.21 3.13,-0.4 4.68,-0.59zm-9.5,-2.41c-0.98,0.08 -1.97,0.17 -2.96,0.25l-0.2,0.02c-0.21,0.01 -0.42,0.03 -0.63,0.05c-0.27,0.02 -0.53,0.05 -0.8,0.07c1.17,1.13 2.3,2.26 3.41,3.41c1.55,-0.21 3.1,-0.42 4.64,-0.63l0.05,0c-1.14,-1.07 -2.31,-2.12 -3.51,-3.17zm-2.44,3.98c-1.14,-1.17 -2.3,-2.32 -3.49,-3.47c-1.62,0.15 -3.24,0.31 -4.87,0.47c1.16,1.23 2.29,2.47 3.39,3.72c1.66,-0.24 3.32,-0.49 4.97,-0.72zm-423.43,11.13c-9.19,-3.07 -18.02,-6.19 -26.65,-9.33c6.02,2.15 12.18,4.27 18.54,6.33c65.94,21.41 110.25,21.04 194.96,11.82c17.15,-1.88 35.02,-4.24 53.78,-6.71l0.02,-0.01c1.8,-0.23 3.6,-0.47 5.41,-0.71l2.81,-0.37c13.99,-1.85 28.17,-3.85 42.35,-5.86l0,0c40.85,-5.79 81.74,-11.58 118.23,-13.52c1.2,1.16 2.37,2.33 3.51,3.52c-29.68,3.04 -62.12,8.45 -95.05,13.95c-20.85,3.48 -41.9,6.99 -62.57,9.95c-21.55,3.1 -42.11,5.89 -61.77,7.84c-42.49,4.19 -74.71,5.38 -104.39,2.82c-29.66,-2.56 -56.82,-8.88 -89.18,-19.72zm419.05,-15.44c-1.58,0.15 -3.18,0.3 -4.78,0.46c-1.12,-1.16 -2.26,-2.31 -3.43,-3.46c1.58,-0.08 3.14,-0.15 4.7,-0.21c1.19,1.06 2.36,2.13 3.51,3.21zm3.75,-0.33c-0.8,0.06 -1.6,0.13 -2.4,0.21c-1.11,-1.06 -2.24,-2.11 -3.4,-3.15c1.46,-0.06 2.92,-0.11 4.37,-0.15c1.2,0.96 2.37,1.93 3.52,2.91c-0.7,0.06 -1.39,0.12 -2.09,0.18zm7.97,-0.63c-1.48,0.11 -2.97,0.22 -4.46,0.34c-1.11,-0.96 -2.24,-1.91 -3.39,-2.84c1.46,-0.04 2.92,-0.07 4.36,-0.09c1.19,0.85 2.35,1.72 3.49,2.59zm5.8,-0.36c-1.42,0.08 -2.85,0.17 -4.3,0.26c-1.09,-0.85 -2.2,-1.69 -3.33,-2.52c1.41,-0.01 2.81,-0.02 4.2,-0.02c1.16,0.75 2.31,1.51 3.43,2.28zm5.62,-0.29c-1.33,0.06 -2.66,0.13 -4.01,0.2c-1.06,-0.74 -2.14,-1.47 -3.23,-2.19c1.31,0.01 2.6,0.02 3.9,0.04c1.13,0.64 2.24,1.29 3.34,1.95zm5.54,-0.19c-1.25,0.03 -2.51,0.08 -3.78,0.12c-1.02,-0.62 -2.05,-1.24 -3.09,-1.85c1.24,0.03 2.46,0.06 3.68,0.1c1.08,0.53 2.14,1.08 3.19,1.63zm5.4,-0.11c-1.14,0.01 -2.28,0.03 -3.43,0.06c-0.94,-0.51 -1.89,-1 -2.85,-1.49c1.12,0.04 2.23,0.09 3.34,0.15c0.99,0.42 1.97,0.85 2.94,1.28zm5.14,-0.01c-0.96,-0.01 -1.91,-0.01 -2.88,-0.01c-0.8,-0.37 -1.61,-0.74 -2.43,-1.1c0.93,0.06 1.85,0.12 2.77,0.19c0.86,0.3 1.7,0.61 2.54,0.92zm5.02,0.08c-0.36,-0.01 -0.72,-0.02 -1.09,-0.03l-0.25,0l-0.24,-0.01c-0.24,0 -0.47,-0.01 -0.71,-0.01c-0.57,-0.23 -1.15,-0.45 -1.73,-0.66c0.79,0.07 1.58,0.14 2.36,0.22c0.27,0.08 0.55,0.16 0.83,0.24c0.28,0.08 0.55,0.16 0.83,0.25zm-7.13,-1.89l-0.21,-0.04l0.06,0.03l0.15,0.01zm-3.79,-0.26c-0.56,-0.18 -1.13,-0.36 -1.7,-0.54c-0.6,-0.08 -1.2,-0.16 -1.8,-0.24c0.54,0.23 1.08,0.45 1.62,0.68c0.63,0.03 1.26,0.07 1.88,0.1zm-4.7,-0.24c-0.82,-0.33 -1.64,-0.65 -2.47,-0.97c-0.9,-0.1 -1.81,-0.2 -2.72,-0.29c0.81,0.38 1.6,0.77 2.39,1.16c0.94,0.03 1.87,0.06 2.8,0.1zm-5.15,-0.18c-0.96,-0.45 -1.93,-0.9 -2.91,-1.35c-1.07,-0.09 -2.14,-0.18 -3.22,-0.27c0.95,0.51 1.89,1.03 2.82,1.55c1.11,0.02 2.21,0.05 3.31,0.07zm-5.35,-0.09c-1.05,-0.58 -2.11,-1.15 -3.18,-1.71c-1.17,-0.08 -2.35,-0.16 -3.54,-0.23c1.04,0.63 2.07,1.27 3.08,1.92c1.22,0 2.43,0 3.64,0.02zm-5.47,-0.02c-1.1,-0.69 -2.21,-1.37 -3.34,-2.03c-1.29,-0.07 -2.59,-0.13 -3.9,-0.19c1.1,0.75 2.18,1.5 3.24,2.26c1.34,-0.02 2.67,-0.03 4,-0.04zm-5.67,0.07c-1.13,-0.8 -2.28,-1.59 -3.44,-2.36c-1.37,-0.06 -2.74,-0.1 -4.13,-0.14c1.14,0.86 2.25,1.73 3.35,2.6c1.41,-0.04 2.82,-0.07 4.22,-0.1zm-9.28,-2.54c-1.38,-0.03 -2.76,-0.05 -4.14,-0.07c1.15,0.96 2.28,1.93 3.39,2.91l0.31,-0.01c1.32,-0.06 2.64,-0.1 3.95,-0.14c-1.15,-0.91 -2.32,-1.8 -3.51,-2.69zm-2.21,2.9c-1.16,-1 -2.34,-2 -3.53,-2.99c-0.44,0 -0.87,0 -1.31,0c-1.06,-0.01 -2.13,-0.01 -3.2,-0.01c1.17,1.06 2.32,2.14 3.44,3.22c1.54,-0.08 3.08,-0.15 4.6,-0.22zm-5.99,0.29c-1.16,-1.1 -2.35,-2.2 -3.56,-3.29c-44.69,0.18 -96.33,6.48 -146.15,12.57l-0.01,0c-5.6,0.69 -11.19,1.37 -16.74,2.04c-10.85,1.31 -21.42,2.65 -31.7,3.96l0,0c-10.44,1.33 -20.58,2.62 -30.42,3.8c-84.36,10.01 -128.81,14.43 -195.79,-6.69l-0.01,0c-6.39,-2.06 -12.74,-4.22 -19.03,-6.47c8.73,3.23 17.73,6.4 27.17,9.47c65.68,21.32 109.76,20.97 194.39,11.77c17.13,-1.89 34.99,-4.24 53.75,-6.72c2.73,-0.36 5.47,-0.72 8.24,-1.09c13.95,-1.84 28.11,-3.84 42.28,-5.85c40.56,-5.75 81.22,-11.51 117.58,-13.5zm-423.97,11.53c-8.28,-2.66 -16.48,-5.5 -24.59,-8.48c5.46,1.92 10.97,3.76 16.53,5.49l0.01,0c62.72,19.2 105.52,13.52 177.6,3.98c6.12,-0.81 12.45,-1.65 19.02,-2.51c1.66,-0.21 3.32,-0.43 5,-0.65c18.01,-2.36 37.04,-4.85 57.27,-7.07c55.31,-6.06 114.69,-11.91 164.9,-9.64c1.24,1.04 2.46,2.09 3.65,3.15c-44.55,0.27 -95.86,6.53 -145.28,12.57c-5.62,0.69 -11.21,1.37 -16.76,2.04c-10.91,1.32 -21.46,2.66 -31.72,3.96l-0.01,0c-10.41,1.33 -20.52,2.61 -30.39,3.8c-84.35,10.01 -128.54,14.39 -195.23,-6.64zm425.13,-15.73c-1.4,-0.01 -2.81,-0.01 -4.22,-0.01c-1.15,-1.03 -2.32,-2.05 -3.51,-3.06c0.39,0.02 0.78,0.04 1.16,0.06c1.04,0.05 2.08,0.11 3.12,0.17c1.22,0.94 2.42,1.88 3.61,2.84l-0.16,0zm5.75,0.07c-1.32,-0.03 -2.65,-0.05 -3.98,-0.06c-1.13,-0.92 -2.28,-1.83 -3.44,-2.74c1.29,0.08 2.57,0.17 3.85,0.27c1.21,0.83 2.4,1.67 3.57,2.53zm5.66,0.14c-1.31,-0.04 -2.61,-0.08 -3.93,-0.11c-1.1,-0.81 -2.22,-1.62 -3.36,-2.42c1.28,0.11 2.55,0.21 3.81,0.33c1.17,0.72 2.33,1.46 3.48,2.2zm5.52,0.23c-1.2,-0.06 -2.41,-0.11 -3.63,-0.16c-1.06,-0.7 -2.12,-1.39 -3.2,-2.07c1.17,0.11 2.34,0.23 3.5,0.35c1.12,0.62 2.24,1.24 3.33,1.88zm5.29,0.29c-1.05,-0.06 -2.11,-0.13 -3.17,-0.18c-0.98,-0.58 -1.96,-1.15 -2.96,-1.71c1.01,0.11 2.02,0.23 3.02,0.36c1.05,0.5 2.08,1.01 3.11,1.53zm5.1,0.37c-0.89,-0.07 -1.77,-0.14 -2.67,-0.2c-0.84,-0.44 -1.7,-0.88 -2.56,-1.31c0.83,0.11 1.66,0.23 2.48,0.35c0.92,0.38 1.84,0.77 2.75,1.16zm4.72,0.42c-0.6,-0.06 -1.2,-0.12 -1.79,-0.17c-0.62,-0.28 -1.24,-0.55 -1.87,-0.83c0.53,0.09 1.05,0.17 1.57,0.26c0.7,0.24 1.4,0.49 2.09,0.74zm-11.02,-3c-0.43,-0.17 -0.86,-0.33 -1.29,-0.5c-0.13,-0.02 -0.27,-0.05 -0.4,-0.08l-0.35,-0.07l-0.14,-0.03l-0.31,-0.06l-0.31,-0.06c0.42,0.2 0.85,0.4 1.27,0.6c0.51,0.06 1.02,0.13 1.53,0.2zm-4.57,-0.57c-0.72,-0.33 -1.44,-0.66 -2.17,-0.98c-0.79,-0.15 -1.59,-0.29 -2.39,-0.43c0.71,0.38 1.42,0.76 2.11,1.14c0.82,0.09 1.64,0.18 2.45,0.27zm-4.97,-0.53c-0.89,-0.47 -1.78,-0.94 -2.67,-1.4c-1.01,-0.16 -2.03,-0.32 -3.05,-0.48c0.87,0.53 1.74,1.05 2.6,1.58c1.04,0.09 2.08,0.19 3.12,0.3zm-5.31,-0.49c-0.99,-0.6 -1.98,-1.18 -2.99,-1.77c-1.15,-0.16 -2.3,-0.32 -3.47,-0.48c0.99,0.65 1.96,1.31 2.92,1.97c1.18,0.09 2.36,0.18 3.54,0.28zm-5.5,-0.42c-1.06,-0.72 -2.12,-1.42 -3.2,-2.12c-1.18,-0.15 -2.36,-0.29 -3.54,-0.43c1.04,0.77 2.08,1.53 3.09,2.31c1.22,0.07 2.44,0.15 3.65,0.24zm-5.44,-0.34c-1.09,-0.82 -2.19,-1.63 -3.31,-2.44c-1.35,-0.14 -2.7,-0.29 -4.05,-0.42c1.09,0.87 2.18,1.76 3.24,2.65c0.8,0.03 1.6,0.07 2.39,0.11c0.58,0.03 1.16,0.06 1.73,0.1zm-5.79,-0.29c-1.12,-0.92 -2.26,-1.84 -3.41,-2.75c-50.7,-4.84 -111.22,-1.02 -166.97,4.45c-22.28,2.2 -42.93,4.95 -62.41,7.67c-12.94,1.81 -24.95,3.63 -36.26,5.35l-0.01,0l0,0l0,0l-0.01,0l0,0c-61.79,9.38 -102.79,15.61 -161.16,-1.74l-0.01,0c-5.87,-1.77 -11.67,-3.67 -17.41,-5.71c8.35,3.14 16.83,6.05 25.42,8.73c62.43,19.11 104.95,13.48 177.07,3.92l0.01,0c6.1,-0.8 12.42,-1.64 18.98,-2.49c1.65,-0.22 3.31,-0.44 4.98,-0.65l0.01,-0.01c18.02,-2.36 37.05,-4.85 57.3,-7.07c54.85,-6.01 113.82,-11.82 163.88,-9.7zm-429.85,12.12c-7.26,-2.19 -14.42,-4.59 -21.47,-7.19c4.4,1.5 8.85,2.91 13.35,4.22l0,0c55.57,16.03 95.33,8.99 150.89,-0.84c14.53,-2.57 30.14,-5.34 47.39,-7.93c19.39,-2.89 40.08,-5.67 62.54,-7.62c55.87,-4.87 117.03,-6.6 167.95,0.69c0.21,0.03 0.42,0.06 0.63,0.09l0.36,0.06c1.17,0.86 2.32,1.72 3.45,2.6c-50.54,-4.64 -110.53,-0.83 -165.75,4.59c-22.32,2.2 -42.98,4.96 -62.47,7.68c-12.98,1.81 -25.02,3.63 -36.35,5.35c-61.76,9.38 -102.45,15.55 -160.52,-1.7zm427.36,-15.71l-0.42,-0.04c-1.06,-0.83 -2.13,-1.65 -3.22,-2.47c1.26,0.2 2.52,0.39 3.76,0.59c1.12,0.75 2.22,1.51 3.31,2.27c-1.14,-0.12 -2.28,-0.24 -3.43,-0.35zm8.71,0.95c-1.08,-0.13 -2.17,-0.26 -3.26,-0.38c-0.99,-0.7 -1.99,-1.4 -3,-2.1c1.04,0.18 2.09,0.36 3.12,0.54c1.06,0.64 2.11,1.29 3.14,1.94zm5.35,0.69c-1.02,-0.14 -2.05,-0.28 -3.08,-0.41c-0.9,-0.58 -1.81,-1.15 -2.74,-1.73c1,0.19 2,0.38 2.99,0.58c0.95,0.51 1.89,1.03 2.83,1.56zm5.07,0.73c-0.81,-0.12 -1.64,-0.24 -2.46,-0.37c-0.74,-0.42 -1.49,-0.85 -2.25,-1.27c0.79,0.16 1.58,0.33 2.36,0.5c0.79,0.38 1.57,0.76 2.35,1.14zm4.56,0.73c-0.47,-0.08 -0.94,-0.16 -1.42,-0.23c-0.46,-0.24 -0.93,-0.48 -1.4,-0.71c0.43,0.1 0.86,0.2 1.29,0.3c0.52,0.22 1.03,0.43 1.53,0.64zm-10.66,-3.6c-0.43,-0.2 -0.86,-0.39 -1.29,-0.58c-0.19,-0.05 -0.37,-0.1 -0.56,-0.15c-0.24,-0.07 -0.48,-0.14 -0.73,-0.2c0.2,0.1 0.41,0.21 0.61,0.32c0.2,0.11 0.41,0.22 0.62,0.33c0.45,0.09 0.9,0.19 1.35,0.28zm-4.6,-0.9c-0.73,-0.38 -1.46,-0.76 -2.2,-1.13c-0.77,-0.2 -1.54,-0.39 -2.31,-0.58c0.71,0.42 1.42,0.84 2.13,1.27c0.8,0.14 1.59,0.29 2.38,0.44zm-5.09,-0.92c-0.9,-0.53 -1.81,-1.05 -2.73,-1.57c-0.86,-0.2 -1.72,-0.4 -2.58,-0.59c0.87,0.56 1.73,1.13 2.59,1.71c0.91,0.15 1.82,0.3 2.72,0.45zm-5.07,-0.83c-0.99,-0.65 -1.99,-1.3 -3,-1.94c-1.13,-0.24 -2.27,-0.48 -3.41,-0.71c0.99,0.7 1.97,1.41 2.94,2.13c1.16,0.17 2.32,0.34 3.47,0.52zm-5.57,-0.82c-1.07,-0.78 -2.15,-1.55 -3.24,-2.31c-0.92,-0.18 -1.84,-0.36 -2.76,-0.53c-51,-9.61 -112.44,-9.97 -168.06,-5.74c-21.04,1.65 -41.96,4.18 -62.69,7.58l0,0c-20.51,3.28 -38.69,7.01 -55.52,10.45l-0.57,0.12c-16.99,3.48 -32.61,6.67 -47.86,8.82c-30.53,4.31 -59.57,4.47 -95.16,-5.48l0,-0.01c-4.57,-1.29 -9.08,-2.7 -13.54,-4.21c7.07,2.63 14.27,5.02 21.6,7.16c55.24,15.93 94.64,8.96 150.15,-0.86l0,0c14.55,-2.58 30.21,-5.35 47.55,-7.95c19.4,-2.9 40.12,-5.68 62.62,-7.63c55.62,-4.85 116.56,-6.6 167.48,0.59zm-535.85,-37.32c-1.67,-1.37 -3.31,-2.75 -4.92,-4.14l-0.28,-0.18c-0.13,-0.08 -0.26,-0.15 -0.39,-0.23c1.76,1.5 3.56,2.99 5.41,4.46l0.18,0.09zm-4.53,-2.34c-1.99,-1.66 -3.93,-3.34 -5.82,-5.04c-0.62,-0.36 -1.25,-0.71 -1.88,-1.06c2.06,1.84 4.18,3.67 6.37,5.45c0.45,0.22 0.89,0.43 1.33,0.65zm2.43,2.32c1.94,1.49 3.93,2.94 5.99,4.37c-1.39,-1.05 -2.77,-2.12 -4.13,-3.21c-0.21,-0.17 -0.43,-0.34 -0.64,-0.51c-0.41,-0.22 -0.81,-0.43 -1.22,-0.65zm-13.02,-11.08c0.56,0.3 1.12,0.59 1.68,0.89c-1.2,-1.11 -2.38,-2.23 -3.55,-3.36c-0.67,-0.42 -1.35,-0.84 -2.02,-1.25c1.27,1.25 2.56,2.49 3.89,3.72zm5.77,3.17c0.12,0.07 0.24,0.14 0.36,0.21c-0.81,-0.73 -1.62,-1.46 -2.42,-2.19c-0.26,-0.18 -0.52,-0.36 -0.79,-0.53c0.86,0.79 1.72,1.58 2.6,2.36l0.25,0.15zm109.7,57.29c-7.69,-2.18 -15.23,-4.68 -22.6,-7.48c4.78,1.64 9.63,3.13 14.55,4.48l0,0c36.12,9.81 65.45,8.56 96.09,3.11c13.7,-2.44 27.66,-5.72 42.6,-9.23c1.76,-0.41 3.53,-0.83 5.32,-1.25c16.97,-3.98 35.28,-8.15 55.94,-11.68l0,0c20.73,-3.61 41.71,-6.13 62.83,-7.55c55.38,-3.61 117.11,-1.12 168.17,10.83c1.47,0.34 2.93,0.69 4.39,1.05c1.03,0.68 2.05,1.37 3.07,2.06c-0.2,-0.04 -0.41,-0.08 -0.61,-0.12c-51.16,-9.63 -112.74,-9.99 -168.42,-5.76l0,0c-21.07,1.66 -42.04,4.19 -62.8,7.6c-20.54,3.29 -38.74,7.01 -55.56,10.46l-0.58,0.12c-17,3.48 -32.58,6.66 -47.78,8.81c-30.39,4.29 -59.23,4.44 -94.61,-5.45zm435.78,-14.59c-0.99,-0.2 -1.99,-0.4 -3,-0.6c-0.87,-0.61 -1.75,-1.21 -2.64,-1.81c0.99,0.25 1.97,0.51 2.94,0.77c0.91,0.54 1.81,1.09 2.7,1.64zm4.76,1.02c-0.65,-0.14 -1.31,-0.29 -1.97,-0.43c-0.68,-0.43 -1.38,-0.87 -2.07,-1.29c0.6,0.16 1.19,0.33 1.79,0.5c0.75,0.41 1.5,0.81 2.25,1.22zm4.19,0.96c-0.28,-0.07 -0.56,-0.13 -0.83,-0.2c-0.41,-0.23 -0.82,-0.46 -1.23,-0.69c0.24,0.08 0.49,0.15 0.74,0.23c0.16,0.05 0.31,0.09 0.47,0.14c0.44,0.21 0.87,0.42 1.31,0.63c-0.15,-0.04 -0.31,-0.07 -0.46,-0.11zm-560.9,-50.73c-0.18,-0.18 -0.37,-0.35 -0.55,-0.52c-1.04,-0.97 -2.07,-1.94 -3.1,-2.91l-0.02,-0.02c1.08,1.07 2.17,2.13 3.28,3.2c0.13,0.08 0.26,0.16 0.39,0.25zm-4.34,-2.66c-1.15,-1.14 -2.29,-2.28 -3.42,-3.41c-0.39,-0.38 -0.78,-0.77 -1.16,-1.16c-0.56,-0.39 -1.13,-0.77 -1.69,-1.16c1.51,1.59 3.04,3.18 4.61,4.75c0.55,0.32 1.11,0.65 1.66,0.98zm90.72,54.91c7.18,2.74 14.56,5.15 22.1,7.22c35.87,9.74 64.99,8.51 95.5,3.08c13.65,-2.43 27.58,-5.7 42.52,-9.21l0.03,-0.01c1.75,-0.41 3.51,-0.83 5.29,-1.24c16.97,-3.98 35.31,-8.16 56.02,-11.7c20.77,-3.62 41.8,-6.15 62.97,-7.56c55.46,-3.62 117.34,-1.14 168.57,10.85c0.25,0.06 0.5,0.12 0.75,0.18c0.18,0.04 0.36,0.08 0.54,0.13l0.43,0.1c-0.88,-0.57 -1.77,-1.13 -2.66,-1.69c-1.95,-0.58 -3.91,-1.15 -5.89,-1.7c-51.13,-14.28 -113.15,-18.87 -168.28,-15.9c-21.19,1.17 -42.25,3.67 -62.97,7.49l-0.01,0c-20.59,3.73 -38.84,8.31 -55.8,12.78c-3.31,0.87 -6.56,1.74 -9.78,2.6c-13.27,3.54 -25.84,6.89 -38.22,9.54c-30.77,6.61 -60.41,8.94 -97.05,-0.72c-4.76,-1.26 -9.45,-2.68 -14.06,-4.24zm457.61,-7.46c0.77,0.2 1.54,0.39 2.31,0.59c-0.68,-0.4 -1.37,-0.79 -2.06,-1.18c-0.75,-0.24 -1.51,-0.48 -2.27,-0.72c0.68,0.44 1.35,0.87 2.02,1.31zm5.78,1.49c0.24,0.07 0.48,0.13 0.72,0.2c-0.41,-0.21 -0.83,-0.42 -1.24,-0.63l-0.5,-0.17c0.34,0.2 0.68,0.4 1.02,0.6zm-563.28,-57.73c0.37,0.23 0.73,0.46 1.09,0.69l-0.6,-0.61c-0.63,-0.64 -1.27,-1.28 -1.9,-1.92l-0.01,-0.01c-0.34,-0.26 -0.67,-0.51 -1.01,-0.77c0.8,0.87 1.62,1.74 2.43,2.62zm114.3,67.07c-7.42,-1.97 -14.67,-4.31 -21.71,-7c4.46,1.49 9.01,2.84 13.62,4.02c37.17,9.51 67.11,6.09 97.99,-1.66c11.34,-2.85 22.82,-6.29 34.83,-9.88c4.32,-1.29 8.71,-2.61 13.19,-3.92c16.92,-4.97 35.11,-9.95 55.59,-13.88l0.01,0c20.74,-4.05 41.89,-6.55 63.19,-7.47c54.89,-2.36 117.19,4.34 168.39,20.95c2.5,0.81 4.98,1.65 7.42,2.51c0.7,0.41 1.4,0.83 2.09,1.25c-0.82,-0.24 -1.65,-0.47 -2.48,-0.71c-51.31,-14.32 -113.48,-18.92 -168.72,-15.95c-21.26,1.18 -42.37,3.69 -63.15,7.51c-20.64,3.74 -38.94,8.33 -55.91,12.81c-3.31,0.87 -6.57,1.74 -9.79,2.6c-13.27,3.54 -25.8,6.88 -38.14,9.53c-30.64,6.57 -60.05,8.87 -96.42,-0.71zm439.39,-13.67c-0.4,-0.12 -0.8,-0.24 -1.2,-0.36c-0.33,-0.21 -0.66,-0.42 -1,-0.62l0.34,0.12l0.32,0.12c0.19,0.07 0.37,0.14 0.56,0.21c0.32,0.18 0.65,0.35 0.98,0.53zm-469.39,2.67c7.19,2.8 14.62,5.19 22.25,7.15c36.88,9.43 66.57,6.05 97.32,-1.67c11.31,-2.84 22.75,-6.26 34.75,-9.85c4.33,-1.3 8.73,-2.61 13.22,-3.93c16.94,-4.97 35.17,-9.97 55.72,-13.92c20.8,-4.06 42.02,-6.57 63.39,-7.49c55.02,-2.36 117.49,4.35 168.87,21.02c0.94,0.3 1.87,0.61 2.8,0.92c-0.26,-0.15 -0.52,-0.29 -0.78,-0.44c-2.96,-1.2 -5.97,-2.36 -9.01,-3.48c-51.27,-18.95 -113.87,-27.76 -168.53,-26.02c-21.34,0.67 -42.54,3.15 -63.26,7.4c-20.39,4.14 -38.51,9.52 -55.42,14.99c-5.39,1.74 -10.66,3.49 -15.84,5.21c-11.05,3.68 -21.7,7.21 -32.24,10.24c-31,8.9 -61.25,13.4 -98.94,4.05c-4.85,-1.21 -9.63,-2.6 -14.3,-4.18zm14.63,3.3c-7.72,-1.92 -15.22,-4.31 -22.45,-7.15c4.74,1.59 9.59,2.99 14.53,4.17c38.25,9.21 68.78,3.62 99.89,-6.43c9.9,-3.19 19.84,-6.84 30.11,-10.6c22.03,-8.06 45.54,-16.67 73.27,-22.59l0,0c20.7,-4.48 41.98,-6.95 63.39,-7.37l0,0c54.42,-1.21 117.3,9.71 168.65,31.02c2.96,1.23 5.88,2.49 8.76,3.79c-0.59,-0.23 -1.19,-0.45 -1.78,-0.67c-51.45,-19.01 -114.22,-27.84 -169.04,-26.1c-21.42,0.68 -42.7,3.17 -63.5,7.43c-20.45,4.15 -38.63,9.55 -55.55,15.02c-5.42,1.75 -10.7,3.51 -15.89,5.23c-11.03,3.67 -21.64,7.19 -32.15,10.21c-30.88,8.86 -60.86,13.31 -98.24,4.04zm-28.8,-10.45c6.82,2.64 13.91,4.85 21.2,6.59c37.91,9.13 68.17,3.6 99.15,-6.4c9.82,-3.17 19.72,-6.79 29.97,-10.55c22.06,-8.07 45.72,-16.73 73.54,-22.68c20.79,-4.5 42.15,-6.98 63.65,-7.4c52.81,-1.17 113.54,9.04 164.08,29.05c-0.69,-0.32 -1.38,-0.64 -2.07,-0.96c-51.41,-23.63 -114.59,-36.65 -168.77,-36.12c-59.12,0.59 -100.78,17.25 -138.45,32.31c-2.1,0.84 -4.19,1.68 -6.27,2.51c-39.33,15.65 -75.1,28.44 -122.92,17.28c-4.59,-1.08 -8.96,-2.29 -13.11,-3.63z" fill="#E5E5E5" fill-opacity="0.6" fill-rule="evenodd" id="svg_2"/>
  </g>
 </g>
</svg>