<svg width="22" height="22" viewBox="0 0 22 22" fill="none" xmlns="http://www.w3.org/2000/svg">
<path d="M14.6667 13.7503C12.6408 14.9722 9.35732 14.9722 7.33332 13.7503M17.4167 7.98428L12.5281 4.18195C12.0991 3.8482 11.571 3.66699 11.0275 3.66699C10.4839 3.66699 9.95591 3.8482 9.5269 4.18195L4.6374 7.98428C4.34356 8.21279 4.10582 8.50543 3.94235 8.83985C3.77887 9.17427 3.69398 9.54163 3.69415 9.91386V16.5139C3.69415 17.0001 3.88731 17.4664 4.23112 17.8102C4.57494 18.154 5.04126 18.3472 5.52749 18.3472H16.5275C17.0137 18.3472 17.48 18.154 17.8238 17.8102C18.1677 17.4664 18.3608 17.0001 18.3608 16.5139V9.91386C18.3608 9.15945 18.0125 8.4472 17.4167 7.98428Z" stroke="#808B9A" stroke-width="1.5" stroke-linecap="round" stroke-linejoin="round"/>
</svg>
