<svg width="22" height="22" viewBox="0 0 22 22" fill="none" xmlns="http://www.w3.org/2000/svg">
<path d="M7.33332 13.292L13.2843 7.34104M12.3713 18.3373L18.3333 12.3753M7.87049 17.7965L17.7952 7.87178M14.6667 7.33366V5.50033C14.6667 5.0141 14.4735 4.54778 14.1297 4.20396C13.7859 3.86015 13.3196 3.66699 12.8333 3.66699H5.49999C5.01376 3.66699 4.54744 3.86015 4.20363 4.20396C3.85981 4.54778 3.66666 5.0141 3.66666 5.50033V12.8337C3.66666 13.3199 3.85981 13.7862 4.20363 14.13C4.54744 14.4738 5.01376 14.667 5.49999 14.667H7.33332M9.16666 7.33366H16.5C17.5125 7.33366 18.3333 8.15447 18.3333 9.16699V16.5003C18.3333 17.5128 17.5125 18.3337 16.5 18.3337H9.16666C8.15413 18.3337 7.33332 17.5128 7.33332 16.5003V9.16699C7.33332 8.15447 8.15413 7.33366 9.16666 7.33366Z" stroke="#808B9A" stroke-width="1.5" stroke-linecap="round" stroke-linejoin="round"/>
</svg>
