<svg width="22" height="22" viewBox="0 0 22 22" fill="none" xmlns="http://www.w3.org/2000/svg">
<path d="M16.5 7.33366V4.58366C16.5 4.34054 16.4034 4.10739 16.2315 3.93548C16.0596 3.76357 15.8264 3.66699 15.5833 3.66699H3.66667C3.42355 3.66699 3.19039 3.76357 3.01849 3.93548C2.84658 4.10739 2.75 4.34054 2.75 4.58366V15.5837C2.75 15.8268 2.84658 16.0599 3.01849 16.2318C3.19039 16.4037 3.42355 16.5003 3.66667 16.5003H11.9167M14.6667 8.25033H16.5M12.8333 7.33366H18.3333C18.8396 7.33366 19.25 7.74406 19.25 8.25033V17.417C19.25 17.9233 18.8396 18.3337 18.3333 18.3337H12.8333C12.3271 18.3337 11.9167 17.9233 11.9167 17.417V8.25033C11.9167 7.74406 12.3271 7.33366 12.8333 7.33366Z" stroke="#808B9A" stroke-width="1.5" stroke-linecap="round" stroke-linejoin="round"/>
</svg>
