<svg width="22" height="22" viewBox="0 0 22 22" fill="none" xmlns="http://www.w3.org/2000/svg">
<path d="M2.75 19.25V17.4167C2.75 16.4442 3.13631 15.5116 3.82394 14.8239C4.51158 14.1363 5.44421 13.75 6.41667 13.75H10.0833C11.0558 13.75 11.9884 14.1363 12.6761 14.8239C13.3637 15.5116 13.75 16.4442 13.75 17.4167V19.25M14.6667 2.86917C15.4554 3.07111 16.1545 3.52981 16.6537 4.17296C17.1529 4.8161 17.4239 5.6071 17.4239 6.42125C17.4239 7.23541 17.1529 8.02641 16.6537 8.66955C16.1545 9.31269 15.4554 9.7714 14.6667 9.97334M19.25 19.25V17.4167C19.2453 16.6074 18.9731 15.8224 18.4757 15.1841C17.9782 14.5457 17.2836 14.0898 16.5 13.8875M11.9167 6.41667C11.9167 8.44171 10.275 10.0833 8.25 10.0833C6.22496 10.0833 4.58333 8.44171 4.58333 6.41667C4.58333 4.39162 6.22496 2.75 8.25 2.75C10.275 2.75 11.9167 4.39162 11.9167 6.41667Z" stroke="#808B9A" stroke-width="1.5" stroke-linecap="round" stroke-linejoin="round"/>
</svg>
