<svg width="22" height="22" viewBox="0 0 22 22" fill="none" xmlns="http://www.w3.org/2000/svg">
<path d="M2.75 2.75V19.25H19.25M19.25 2.75L13.75 4.125M12.937 6.09583L15.477 9.48292M14.6667 11.4583L10.0833 13.2917M10.0833 13.75C10.0833 14.7625 9.26252 15.5833 8.25 15.5833C7.23748 15.5833 6.41667 14.7625 6.41667 13.75C6.41667 12.7375 7.23748 11.9167 8.25 11.9167C9.26252 11.9167 10.0833 12.7375 10.0833 13.75ZM13.75 4.58333C13.75 5.59586 12.9292 6.41667 11.9167 6.41667C10.9041 6.41667 10.0833 5.59586 10.0833 4.58333C10.0833 3.57081 10.9041 2.75 11.9167 2.75C12.9292 2.75 13.75 3.57081 13.75 4.58333ZM18.3333 11C18.3333 12.0125 17.5125 12.8333 16.5 12.8333C15.4875 12.8333 14.6667 12.0125 14.6667 11C14.6667 9.98748 15.4875 9.16667 16.5 9.16667C17.5125 9.16667 18.3333 9.98748 18.3333 11Z" stroke="#808B9A" stroke-width="1.5" stroke-linecap="round" stroke-linejoin="round"/>
</svg>
