<svg width="176" height="42" viewBox="0 0 176 42" fill="none" xmlns="http://www.w3.org/2000/svg">
<path d="M18.6259 2.8663L34.609 12.359V35.3193H29.1879C28.6089 33.15 27.3806 31.2483 25.723 29.8359C23.81 28.2044 21.3312 27.2188 18.6259 27.2188C15.9207 27.2188 13.4419 28.2044 11.5288 29.8359C9.87221 31.2483 8.64295 33.15 8.06401 35.3193H2.64293V12.3598L18.6251 2.86718L18.6259 2.8663ZM18.6259 29.8588C20.6844 29.8588 22.564 30.6033 24.01 31.8371C25.4825 33.0928 26.5099 34.8511 26.8236 36.8408L26.9999 37.9593H37.2525V10.6579L18.6259 -0.0078125L0.000244141 10.6579V37.9593H10.2529L10.4291 36.8408C10.7419 34.8511 11.7694 33.0928 13.2428 31.8371C14.6888 30.6042 16.5684 29.8588 18.6259 29.8588ZM18.6259 42.0091C20.8659 42.0091 22.6821 40.1963 22.6821 37.9602C22.6821 35.7241 20.8668 33.9104 18.6259 33.9104C16.3851 33.9104 14.5707 35.7232 14.5707 37.9602C14.5707 40.1972 16.386 42.0091 18.6259 42.0091ZM29.1879 15.6414C25.6948 13.3604 22.1754 12.1803 18.6312 12.153H18.6207C15.0765 12.1803 11.5579 13.3604 8.06401 15.6414L8.7857 18.3298C12.0937 16.0092 15.3752 14.8071 18.6259 14.7816C21.8766 14.808 25.1582 16.0092 28.4662 18.3298L29.1879 15.6414ZM10.3392 21.9555C13.0841 20.5448 15.8449 19.8153 18.6207 19.795H18.6312C21.407 19.8161 24.1677 20.5448 26.9127 21.9555L26.2139 24.5629C23.6681 23.1655 21.1373 22.4439 18.6259 22.4236C16.1146 22.4439 13.5847 23.1655 11.0389 24.5629L10.3392 21.9555Z" fill="#1B85F3"/>
<path d="M166.14 22.6526C166.383 19.9861 168.324 18.4667 170.574 18.4667C173.2 18.4667 174.965 19.9641 174.988 22.6526H166.14ZM170.574 28.6885C172.317 28.6885 174.214 27.9833 175.272 26.5961L174.501 25.979C173.686 27.0577 172.01 27.6318 170.574 27.6318C168.324 27.6318 166.36 26.1553 166.14 23.6002H175.958C176.377 19.3493 173.641 17.4772 170.574 17.4772C167.506 17.4772 165.037 19.8341 165.037 23.0944C165.037 26.5531 167.509 28.6896 170.574 28.6896V28.6885ZM162.41 18.9295C161.33 17.9169 159.939 17.4761 158.35 17.4761C156.144 17.453 154.004 18.3785 154.027 20.5161C154.049 22.6978 156.144 23.0933 158.263 23.4459C160.048 23.7313 161.858 24.0398 161.813 25.6044C161.748 27.3233 159.74 27.6759 158.416 27.6759C156.96 27.6759 155.328 27.1239 154.423 25.8259L153.63 26.53C154.577 27.9833 156.475 28.7105 158.393 28.7105C160.311 28.7105 162.805 28.0725 162.872 25.6705C162.983 23.1374 160.313 22.8057 158.371 22.4763C157.003 22.2339 155.106 21.9474 155.062 20.4941C155.018 19.1058 156.651 18.4678 158.348 18.4887C159.562 18.4887 160.643 18.665 161.745 19.6346L162.407 18.9295H162.41ZM151.046 28.5353V17.6304H149.966V23.6894C149.966 25.9361 148.4 27.6329 146.149 27.6538C143.789 27.677 142.265 26.3537 142.265 23.8877V17.6315H141.185V23.9098C141.185 26.9277 143.193 28.7116 146.105 28.7116C147.628 28.6896 149.151 28.0736 149.988 26.5762V28.5364H151.046V28.5353ZM132.801 27.6318C130.331 27.6318 128.322 25.935 128.322 23.1154C128.322 20.2958 130.331 18.4678 132.801 18.4678C135.272 18.4678 137.28 20.2958 137.28 23.1154C137.28 25.935 135.272 27.6318 132.801 27.6318ZM132.801 28.6885C135.868 28.6885 138.338 26.574 138.338 23.1143C138.338 19.6545 135.868 17.453 132.801 17.453C129.735 17.453 127.264 19.6567 127.264 23.1143C127.264 26.5718 129.735 28.6885 132.801 28.6885ZM115.04 13.0908V28.5342H116.121V22.5644C116.121 20.2935 117.71 18.5328 120.005 18.5328C122.452 18.5328 123.512 20.0522 123.512 22.3V28.5353H124.571V22.3C124.571 19.4583 123.048 17.4982 120.005 17.4982C118.482 17.5202 116.959 18.1152 116.078 19.6798V13.0919H115.04V13.0908ZM106.734 14.8978V17.6943H104.703V20.0082H106.734V24.6998C106.734 27.4092 108.277 28.7535 110.639 28.6653C111.455 28.6422 112.094 28.5111 112.867 28.2026L112.116 25.9118C111.719 26.1102 111.233 26.2413 110.815 26.2413C109.977 26.2413 109.403 25.7355 109.403 24.6998V20.0082H112.425V17.6943H109.425V14.6103L106.734 14.8967V14.8978ZM95.0957 17.6734V28.5342H97.787V22.8057C97.787 20.8015 99.0891 20.0522 100.5 20.0522C101.383 20.0522 101.891 20.2946 102.442 20.7574L103.656 18.4226C103.06 17.8276 101.979 17.3869 100.855 17.3869C99.7301 17.3869 98.6267 17.5852 97.7881 18.9295L97.5895 17.6745H95.0968L95.0957 17.6734ZM86.6556 19.8109C90.8916 19.8109 90.8916 26.3977 86.6556 26.3977C84.8691 26.3977 83.4346 25.1637 83.4346 23.0933C83.4346 21.023 84.8691 19.8109 86.6556 19.8109ZM89.8765 19.1708C89.2586 18.0921 87.8693 17.4089 86.4128 17.4089C83.236 17.3858 80.7422 19.3471 80.7422 23.0922C80.7422 26.8374 83.1257 28.8857 86.3455 28.8637C87.5593 28.8416 89.2575 28.2257 89.8754 26.9476L90.0078 28.5342H92.5446V17.6734H89.9636L89.8754 19.1708H89.8765ZM71.2229 28.5342V22.7176C71.2229 21.2863 72.1277 20.0291 73.5832 20.0291C75.0386 20.0291 75.6344 21.2411 75.6344 22.6724V28.5331H78.3257V22.6724C78.3257 19.4121 76.803 17.5169 73.7145 17.5169C72.3021 17.5169 71.0453 17.9587 70.0742 19.5002C69.4563 18.0017 68.1554 17.4739 66.8533 17.4739C65.8161 17.4739 64.5593 17.8695 63.9855 18.9713L63.7869 17.6491H61.2942V28.5331H63.9855V22.7165C63.9855 21.2852 64.8462 19.9839 66.3016 19.9839C67.757 19.9839 68.5305 21.2852 68.5305 22.7165V28.5331H71.2218L71.2229 28.5342ZM58.7905 18.7961C57.5326 17.6943 56.2537 17.3649 54.5544 17.3649C52.5694 17.3649 49.9653 18.2452 49.9653 20.7574C49.9653 23.2696 52.4138 23.9737 54.4662 24.128C56.0099 24.2161 56.6278 24.5235 56.6278 25.2728C56.6278 26.0661 55.6788 26.595 54.6648 26.574C53.4521 26.5509 51.6866 25.9129 50.9142 25.0535L49.5901 26.9696C51.179 28.6224 52.8993 28.9088 54.6195 28.9088C57.7301 28.9088 59.297 27.2561 59.297 25.34C59.297 22.4543 56.694 21.9915 54.6416 21.8593C53.2513 21.7711 52.6124 21.3745 52.6124 20.6704C52.6124 19.9663 53.3186 19.5906 54.5975 19.5906C55.6347 19.5906 56.5163 19.833 57.2887 20.5602L58.7894 18.7972L58.7905 18.7961Z" fill="#101113"/>
</svg>
